<svg width="720" height="1024" viewBox="0 0 720 1024" fill="none" xmlns="http://www.w3.org/2000/svg">
<g opacity="0.7" clip-path="url(#clip0_847_4809)">
<rect y="-4" width="720" height="1024" fill="#AEDBEF"/>
<g filter="url(#filter0_dd_847_4809)">
<path d="M208.64 70.638C207.93 70.638 207.2 70.6079 206.48 70.5378C205.77 70.4576 205.05 70.3574 204.35 70.2071C203.64 70.0669 202.94 69.8965 202.26 69.6861C201.57 69.4757 200.89 69.2252 200.23 68.9547C199.57 68.6842 198.91 68.3736 198.28 68.0329C197.65 67.6922 197.03 67.3215 196.43 66.9307C195.83 66.53 195.25 66.0991 194.69 65.6382C194.14 65.1873 193.6 64.6964 193.09 64.1854C192.58 63.6744 192.09 63.1333 191.63 62.5722C191.18 62.0211 190.75 61.44 190.35 60.8388C189.96 60.2377 189.59 59.6165 189.25 58.9852C188.91 58.354 188.6 57.6927 188.33 57.0314C188.06 56.3701 187.81 55.6888 187.6 54.9974C187.39 54.3161 187.22 53.6047 187.08 52.9033C186.93 52.202 186.83 51.4806 186.75 50.7692C186.68 50.0478 186.64 49.3163 186.64 48.6049C186.64 47.8936 186.68 47.1521 186.75 46.4307C186.83 45.7193 186.93 44.9979 187.08 44.2965C187.22 43.5952 187.39 42.8838 187.6 42.2024C187.81 41.5111 188.06 40.8298 188.33 40.1685C188.6 39.5072 188.91 38.8459 189.25 38.2147C189.59 37.5834 189.96 36.9622 190.35 36.361C190.75 35.7599 191.18 35.1787 191.63 34.6276C192.09 34.0666 192.58 33.5255 193.09 33.0145C193.6 32.5035 194.14 32.0125 194.69 31.5617C195.25 31.1008 195.83 30.6699 196.43 30.2691C197.03 29.8784 197.65 29.5076 198.28 29.167C198.91 28.8263 199.57 28.5257 200.23 28.2452C200.89 27.9747 201.57 27.7242 202.26 27.5137C202.94 27.3134 203.64 27.133 204.35 26.9927C205.05 26.8424 205.77 26.7422 206.48 26.6721C207.92 26.5218 209.37 26.5218 210.81 26.6721C211.52 26.7422 212.24 26.8424 212.94 26.9927C213.64 27.133 214.35 27.3134 215.03 27.5137C215.72 27.7242 216.4 27.9747 217.06 28.2452C217.72 28.5257 218.37 28.8263 219.01 29.167C219.64 29.5076 220.26 29.8784 220.86 30.2691C221.45 30.6699 222.04 31.1008 222.59 31.5617C223.15 32.0125 223.69 32.5035 224.2 33.0145C224.71 33.5255 225.2 34.0666 225.65 34.6276C226.11 35.1787 226.54 35.7599 226.93 36.361C227.33 36.9622 227.7 37.5834 228.04 38.2147C228.38 38.8459 228.68 39.5072 228.96 40.1685C229.23 40.8298 229.48 41.5111 229.69 42.2024C229.89 42.8838 230.07 43.5952 230.21 44.2965C230.36 44.9979 230.46 45.7193 230.54 46.4307C230.61 47.1521 230.64 47.8835 230.64 48.6049C230.64 49.3264 230.61 50.0478 230.54 50.7692C230.46 51.4806 230.36 52.202 230.21 52.9033C230.07 53.6047 229.89 54.3161 229.69 54.9974C229.48 55.6888 229.23 56.3701 228.96 57.0314C228.68 57.6927 228.38 58.354 228.04 58.9852C227.7 59.6165 227.33 60.2377 226.93 60.8388C226.54 61.44 226.11 62.0211 225.65 62.5722C225.2 63.1333 224.71 63.6744 224.2 64.1854C223.69 64.6964 223.15 65.1873 222.59 65.6382C222.04 66.0991 221.45 66.53 220.86 66.9307C220.26 67.3215 219.64 67.6922 219.01 68.0329C218.37 68.3736 217.72 68.6842 217.06 68.9547C216.4 69.2252 215.72 69.4757 215.03 69.6861C214.35 69.8965 213.64 70.0669 212.94 70.2071C212.24 70.3574 211.52 70.4576 210.81 70.5378C210.09 70.6079 209.36 70.638 208.64 70.638V70.638Z" fill="url(#paint0_linear_847_4809)"/>
</g>
<g filter="url(#filter1_dd_847_4809)">
<path d="M621.372 248.213C620.662 248.213 619.932 248.182 619.212 248.112C618.502 248.032 617.782 247.932 617.082 247.782C616.372 247.641 615.672 247.471 614.992 247.261C614.302 247.05 613.622 246.8 612.962 246.529C612.302 246.259 611.642 245.948 611.012 245.607C610.382 245.267 609.762 244.896 609.162 244.505C608.562 244.104 607.982 243.674 607.422 243.213C606.872 242.762 606.332 242.271 605.822 241.76C605.312 241.249 604.822 240.708 604.362 240.147C603.912 239.596 603.482 239.015 603.082 238.413C602.692 237.812 602.322 237.191 601.982 236.56C601.642 235.929 601.332 235.267 601.062 234.606C600.792 233.945 600.542 233.263 600.332 232.572C600.122 231.891 599.952 231.179 599.812 230.478C599.662 229.777 599.562 229.055 599.482 228.344C599.412 227.622 599.372 226.891 599.372 226.179C599.372 225.468 599.412 224.727 599.482 224.005C599.562 223.294 599.662 222.572 599.812 221.871C599.952 221.17 600.122 220.458 600.332 219.777C600.542 219.086 600.792 218.404 601.062 217.743C601.332 217.082 601.642 216.42 601.982 215.789C602.322 215.158 602.692 214.537 603.082 213.936C603.482 213.334 603.912 212.753 604.362 212.202C604.822 211.641 605.312 211.1 605.822 210.589C606.332 210.078 606.872 209.587 607.422 209.136C607.982 208.675 608.562 208.244 609.162 207.844C609.762 207.453 610.382 207.082 611.012 206.742C611.642 206.401 612.302 206.1 612.962 205.82C613.622 205.549 614.302 205.299 614.992 205.088C615.672 204.888 616.372 204.708 617.082 204.567C617.782 204.417 618.502 204.317 619.212 204.247C620.652 204.096 622.102 204.096 623.542 204.247C624.252 204.317 624.972 204.417 625.672 204.567C626.372 204.708 627.082 204.888 627.762 205.088C628.452 205.299 629.132 205.549 629.792 205.82C630.452 206.1 631.102 206.401 631.742 206.742C632.372 207.082 632.992 207.453 633.592 207.844C634.182 208.244 634.772 208.675 635.322 209.136C635.882 209.587 636.422 210.078 636.932 210.589C637.442 211.1 637.932 211.641 638.382 212.202C638.842 212.753 639.272 213.334 639.662 213.936C640.062 214.537 640.432 215.158 640.772 215.789C641.112 216.42 641.412 217.082 641.692 217.743C641.962 218.404 642.212 219.086 642.422 219.777C642.622 220.458 642.802 221.17 642.942 221.871C643.092 222.572 643.192 223.294 643.272 224.005C643.342 224.727 643.372 225.458 643.372 226.179C643.372 226.901 643.342 227.622 643.272 228.344C643.192 229.055 643.092 229.777 642.942 230.478C642.802 231.179 642.622 231.891 642.422 232.572C642.212 233.263 641.962 233.945 641.692 234.606C641.412 235.267 641.112 235.929 640.772 236.56C640.432 237.191 640.062 237.812 639.662 238.413C639.272 239.015 638.842 239.596 638.382 240.147C637.932 240.708 637.442 241.249 636.932 241.76C636.422 242.271 635.882 242.762 635.322 243.213C634.772 243.674 634.182 244.104 633.592 244.505C632.992 244.896 632.372 245.267 631.742 245.607C631.102 245.948 630.452 246.259 629.792 246.529C629.132 246.8 628.452 247.05 627.762 247.261C627.082 247.471 626.372 247.641 625.672 247.782C624.972 247.932 624.252 248.032 623.542 248.112C622.822 248.182 622.092 248.213 621.372 248.213V248.213Z" fill="url(#paint1_linear_847_4809)"/>
</g>
<g filter="url(#filter2_dd_847_4809)">
<path d="M508.789 892.783C508.079 892.783 507.349 892.752 506.629 892.682C505.919 892.602 505.199 892.502 504.499 892.352C503.789 892.211 503.089 892.041 502.409 891.831C501.719 891.62 501.039 891.37 500.379 891.099C499.719 890.829 499.059 890.518 498.429 890.177C497.799 889.837 497.179 889.466 496.579 889.075C495.979 888.675 495.399 888.244 494.839 887.783C494.289 887.332 493.749 886.841 493.239 886.33C492.729 885.819 492.239 885.278 491.779 884.717C491.329 884.166 490.899 883.585 490.499 882.983C490.109 882.382 489.739 881.761 489.399 881.13C489.059 880.499 488.749 879.837 488.479 879.176C488.209 878.515 487.959 877.833 487.749 877.142C487.539 876.461 487.369 875.749 487.229 875.048C487.079 874.347 486.979 873.625 486.899 872.914C486.829 872.192 486.789 871.461 486.789 870.749C486.789 870.038 486.829 869.297 486.899 868.575C486.979 867.864 487.079 867.142 487.229 866.441C487.369 865.74 487.539 865.028 487.749 864.347C487.959 863.656 488.209 862.974 488.479 862.313C488.749 861.652 489.059 860.99 489.399 860.359C489.739 859.728 490.109 859.107 490.499 858.506C490.899 857.904 491.329 857.323 491.779 856.772C492.239 856.211 492.729 855.67 493.239 855.159C493.749 854.648 494.289 854.157 494.839 853.706C495.399 853.245 495.979 852.814 496.579 852.414C497.179 852.023 497.799 851.652 498.429 851.312C499.059 850.971 499.719 850.67 500.379 850.39C501.039 850.119 501.719 849.869 502.409 849.658C503.089 849.458 503.789 849.278 504.499 849.137C505.199 848.987 505.919 848.887 506.629 848.817C508.069 848.666 509.519 848.666 510.959 848.817C511.669 848.887 512.389 848.987 513.089 849.137C513.789 849.278 514.499 849.458 515.179 849.658C515.869 849.869 516.549 850.119 517.209 850.39C517.869 850.67 518.519 850.971 519.159 851.312C519.789 851.652 520.409 852.023 521.009 852.414C521.599 852.814 522.189 853.245 522.739 853.706C523.299 854.157 523.839 854.648 524.349 855.159C524.859 855.67 525.349 856.211 525.799 856.772C526.259 857.323 526.689 857.904 527.079 858.506C527.479 859.107 527.849 859.728 528.189 860.359C528.529 860.99 528.829 861.652 529.109 862.313C529.379 862.974 529.629 863.656 529.839 864.347C530.039 865.028 530.219 865.74 530.359 866.441C530.509 867.142 530.609 867.864 530.689 868.575C530.759 869.297 530.789 870.028 530.789 870.749C530.789 871.471 530.759 872.192 530.689 872.914C530.609 873.625 530.509 874.347 530.359 875.048C530.219 875.749 530.039 876.461 529.839 877.142C529.629 877.833 529.379 878.515 529.109 879.176C528.829 879.837 528.529 880.499 528.189 881.13C527.849 881.761 527.479 882.382 527.079 882.983C526.689 883.585 526.259 884.166 525.799 884.717C525.349 885.278 524.859 885.819 524.349 886.33C523.839 886.841 523.299 887.332 522.739 887.783C522.189 888.244 521.599 888.675 521.009 889.075C520.409 889.466 519.789 889.837 519.159 890.177C518.519 890.518 517.869 890.829 517.209 891.099C516.549 891.37 515.869 891.62 515.179 891.831C514.499 892.041 513.789 892.211 513.089 892.352C512.389 892.502 511.669 892.602 510.959 892.682C510.239 892.752 509.509 892.783 508.789 892.783V892.783Z" fill="url(#paint2_linear_847_4809)"/>
</g>
<g filter="url(#filter3_dd_847_4809)">
<path d="M231 982.828C230.29 982.828 229.56 982.798 228.84 982.728C228.13 982.648 227.41 982.548 226.71 982.397C226 982.257 225.3 982.087 224.62 981.876C223.93 981.666 223.25 981.415 222.59 981.145C221.93 980.874 221.27 980.564 220.64 980.223C220.01 979.882 219.39 979.512 218.79 979.121C218.19 978.72 217.61 978.289 217.05 977.828C216.5 977.378 215.96 976.887 215.45 976.376C214.94 975.865 214.45 975.324 213.99 974.762C213.54 974.211 213.11 973.63 212.71 973.029C212.32 972.428 211.95 971.807 211.61 971.176C211.27 970.544 210.96 969.883 210.69 969.222C210.42 968.56 210.17 967.879 209.96 967.188C209.75 966.506 209.58 965.795 209.44 965.094C209.29 964.392 209.19 963.671 209.11 962.959C209.04 962.238 209 961.507 209 960.795C209 960.084 209.04 959.342 209.11 958.621C209.19 957.91 209.29 957.188 209.44 956.487C209.58 955.785 209.75 955.074 209.96 954.393C210.17 953.701 210.42 953.02 210.69 952.359C210.96 951.697 211.27 951.036 211.61 950.405C211.95 949.774 212.32 949.152 212.71 948.551C213.11 947.95 213.54 947.369 213.99 946.818C214.45 946.257 214.94 945.716 215.45 945.205C215.96 944.694 216.5 944.203 217.05 943.752C217.61 943.291 218.19 942.86 218.79 942.459C219.39 942.069 220.01 941.698 220.64 941.357C221.27 941.017 221.93 940.716 222.59 940.435C223.25 940.165 223.93 939.914 224.62 939.704C225.3 939.504 226 939.323 226.71 939.183C227.41 939.033 228.13 938.933 228.84 938.862C230.28 938.712 231.73 938.712 233.17 938.862C233.88 938.933 234.6 939.033 235.3 939.183C236 939.323 236.71 939.504 237.39 939.704C238.08 939.914 238.76 940.165 239.42 940.435C240.08 940.716 240.73 941.017 241.37 941.357C242 941.698 242.62 942.069 243.22 942.459C243.81 942.86 244.4 943.291 244.95 943.752C245.51 944.203 246.05 944.694 246.56 945.205C247.07 945.716 247.56 946.257 248.01 946.818C248.47 947.369 248.9 947.95 249.29 948.551C249.69 949.152 250.06 949.774 250.4 950.405C250.74 951.036 251.04 951.697 251.32 952.359C251.59 953.02 251.84 953.701 252.05 954.393C252.25 955.074 252.43 955.785 252.57 956.487C252.72 957.188 252.82 957.91 252.9 958.621C252.97 959.342 253 960.074 253 960.795C253 961.517 252.97 962.238 252.9 962.959C252.82 963.671 252.72 964.392 252.57 965.094C252.43 965.795 252.25 966.506 252.05 967.188C251.84 967.879 251.59 968.56 251.32 969.222C251.04 969.883 250.74 970.544 250.4 971.176C250.06 971.807 249.69 972.428 249.29 973.029C248.9 973.63 248.47 974.211 248.01 974.762C247.56 975.324 247.07 975.865 246.56 976.376C246.05 976.887 245.51 977.378 244.95 977.828C244.4 978.289 243.81 978.72 243.22 979.121C242.62 979.512 242 979.882 241.37 980.223C240.73 980.564 240.08 980.874 239.42 981.145C238.76 981.415 238.08 981.666 237.39 981.876C236.71 982.087 236 982.257 235.3 982.397C234.6 982.548 233.88 982.648 233.17 982.728C232.45 982.798 231.72 982.828 231 982.828V982.828Z" fill="url(#paint3_linear_847_4809)"/>
</g>
<path d="M91.3994 373.55C90.6894 373.55 89.9594 373.52 89.2394 373.449C88.5294 373.369 87.8094 373.269 87.1094 373.119C86.3994 372.978 85.6994 372.808 85.0194 372.598C84.3294 372.387 83.6494 372.137 82.9894 371.866C82.3294 371.596 81.6694 371.285 81.0394 370.945C80.4094 370.604 79.7894 370.233 79.1894 369.842C78.5894 369.442 78.0094 369.011 77.4494 368.55C76.8994 368.099 76.3594 367.608 75.8494 367.097C75.3394 366.586 74.8494 366.045 74.3894 365.484C73.9394 364.933 73.5094 364.352 73.1094 363.75C72.7194 363.149 72.3494 362.528 72.0094 361.897C71.6694 361.266 71.3594 360.604 71.0894 359.943C70.8194 359.282 70.5694 358.6 70.3594 357.909C70.1494 357.228 69.9794 356.516 69.8394 355.815C69.6894 355.114 69.5894 354.392 69.5094 353.681C69.4394 352.959 69.3994 352.228 69.3994 351.517C69.3994 350.805 69.4394 350.064 69.5094 349.342C69.5894 348.631 69.6894 347.91 69.8394 347.208C69.9794 346.507 70.1494 345.795 70.3594 345.114C70.5694 344.423 70.8194 343.741 71.0894 343.08C71.3594 342.419 71.6694 341.757 72.0094 341.126C72.3494 340.495 72.7194 339.874 73.1094 339.273C73.5094 338.671 73.9394 338.09 74.3894 337.539C74.8494 336.978 75.3394 336.437 75.8494 335.926C76.3594 335.415 76.8994 334.924 77.4494 334.473C78.0094 334.012 78.5894 333.582 79.1894 333.181C79.7894 332.79 80.4094 332.419 81.0394 332.079C81.6694 331.738 82.3294 331.437 82.9894 331.157C83.6494 330.886 84.3294 330.636 85.0194 330.425C85.6994 330.225 86.3994 330.045 87.1094 329.904C87.8094 329.754 88.5294 329.654 89.2394 329.584C90.6794 329.433 92.1294 329.433 93.5694 329.584C94.2794 329.654 94.9994 329.754 95.6994 329.904C96.3994 330.045 97.1094 330.225 97.7894 330.425C98.4794 330.636 99.1594 330.886 99.8194 331.157C100.479 331.437 101.129 331.738 101.769 332.079C102.399 332.419 103.019 332.79 103.619 333.181C104.209 333.582 104.799 334.012 105.349 334.473C105.909 334.924 106.449 335.415 106.959 335.926C107.469 336.437 107.959 336.978 108.409 337.539C108.869 338.09 109.299 338.671 109.689 339.273C110.089 339.874 110.459 340.495 110.799 341.126C111.139 341.757 111.439 342.419 111.719 343.08C111.989 343.741 112.239 344.423 112.449 345.114C112.649 345.795 112.829 346.507 112.969 347.208C113.119 347.91 113.219 348.631 113.299 349.342C113.369 350.064 113.399 350.795 113.399 351.517C113.399 352.238 113.369 352.959 113.299 353.681C113.219 354.392 113.119 355.114 112.969 355.815C112.829 356.516 112.649 357.228 112.449 357.909C112.239 358.6 111.989 359.282 111.719 359.943C111.439 360.604 111.139 361.266 110.799 361.897C110.459 362.528 110.089 363.149 109.689 363.75C109.299 364.352 108.869 364.933 108.409 365.484C107.959 366.045 107.469 366.586 106.959 367.097C106.449 367.608 105.909 368.099 105.349 368.55C104.799 369.011 104.209 369.442 103.619 369.842C103.019 370.233 102.399 370.604 101.769 370.945C101.129 371.285 100.479 371.596 99.8194 371.866C99.1594 372.137 98.4794 372.387 97.7894 372.598C97.1094 372.808 96.3994 372.978 95.6994 373.119C94.9994 373.269 94.2794 373.369 93.5694 373.449C92.8494 373.52 92.1194 373.55 91.3994 373.55Z" fill="url(#paint4_linear_847_4809)"/>
<g filter="url(#filter4_dd_847_4809)">
<path d="M134.51 162.688L171.21 199.46C175.51 203.768 181.14 205.912 186.77 205.912C192.4 205.912 198.24 203.678 202.57 199.209C210.99 190.502 210.53 176.495 201.98 167.928L159.2 125.064V100.617C161.69 99.5845 164.02 98.0816 166.07 96.0977C174.91 87.531 174.66 73.0026 165.96 64.2856L160.94 59.2557C157.54 55.8491 155.63 51.2301 155.63 46.4107V41.1604C155.63 36.1706 157.77 31.4815 161.3 27.9646L161.35 27.9145C169.94 19.3077 169.94 5.35046 161.35 -3.25635L-157.81 -323.021C-166.4 -331.628 -180.33 -331.628 -188.92 -323.021C-197.51 -314.414 -197.51 -300.457 -188.92 -291.85L-28.4798 -131.096L-28.7498 -130.785L-152.82 -255.098C-161.41 -263.705 -175.34 -263.705 -183.93 -255.098C-192.52 -246.491 -192.52 -232.534 -183.93 -223.927L-57.8598 -97.5906L-60.2798 -94.8252L-116.83 -151.486C-125.42 -160.093 -139.35 -160.093 -147.94 -151.486C-156.53 -142.879 -156.53 -128.922 -147.94 -120.315L-89.3798 -61.6404L-121.17 -25.3796L-123.72 -27.9346C-132.31 -36.5414 -146.24 -36.5414 -154.83 -27.9346C-163.42 -19.3277 -163.42 -5.3705 -154.83 3.23631L-150.26 7.81526L-169.14 29.3573L-22.0898 239.127L8.41019 217.244C13.2202 213.798 18.6902 211.393 24.4702 210.181C38.5202 207.245 53.0902 211.593 63.2402 221.763L164.31 323.031C168.61 327.339 174.24 329.483 179.87 329.483C185.5 329.483 191.13 327.329 195.43 323.031C204.02 314.424 204.02 300.467 195.43 291.86L96.0402 192.276L126.52 171.094L134.52 162.698L134.51 162.688Z" fill="url(#paint5_linear_847_4809)"/>
</g>
<g filter="url(#filter5_dd_847_4809)">
<path d="M62.9599 299.775L19.4299 256.16C12.2099 248.926 8.45986 238.917 9.13986 228.707C9.46986 223.777 11.7199 219.238 15.2199 215.751L15.2699 215.701C23.8599 207.094 23.8599 193.137 15.2699 184.53L-303.88 -135.254C-312.47 -143.861 -326.4 -143.861 -334.99 -135.254C-343.58 -126.647 -343.58 -112.69 -334.99 -104.083L-131.76 99.5544L-136.16 100.276L-256.19 -19.9991C-264.78 -28.6059 -278.71 -28.6059 -287.3 -19.9991C-295.89 -11.3923 -295.89 2.565 -287.3 11.1718L31.8399 330.946C36.1399 335.255 41.7699 337.399 47.3999 337.399C53.0299 337.399 58.6599 335.245 62.9599 330.946C71.5499 322.34 71.5499 308.382 62.9599 299.775Z" fill="url(#paint6_linear_847_4809)"/>
</g>
<g filter="url(#filter6_dd_847_4809)">
<path d="M185.96 166.175L-133.19 -153.6C-141.78 -162.207 -155.71 -162.207 -164.3 -153.6C-172.89 -144.993 -172.89 -131.036 -164.3 -122.429L-73.7403 -31.6819L-75.3903 -30.7L-209.79 -165.373C-218.38 -173.98 -232.31 -173.98 -240.9 -165.373C-249.49 -156.766 -249.49 -142.809 -240.9 -134.202L78.2497 185.572C82.5497 189.881 88.1797 192.025 93.8097 192.025C99.4397 192.025 105.07 189.871 109.37 185.572L109.44 185.502C114.61 180.272 121.58 177.246 128.92 177.507C133 177.647 136.87 179.33 139.75 182.226L154.85 197.355C159.15 201.664 164.78 203.808 170.41 203.808C176.04 203.808 181.67 201.654 185.97 197.355C194.56 188.749 194.56 174.791 185.97 166.185L185.96 166.175Z" fill="url(#paint7_linear_847_4809)"/>
</g>
<g filter="url(#filter7_dd_847_4809)">
<path d="M995.902 412.864C1001.53 412.864 1007.16 410.71 1011.46 406.412C1020.05 397.805 1020.05 383.847 1011.46 375.241L692.662 55.8068C684.552 47.6809 671.462 46.719 662.672 54.1034C652.632 62.5299 652.133 77.5592 661.193 86.6269L713.562 139.099C728.922 154.489 717.853 180.791 696.143 180.52C689.823 180.44 683.783 177.895 679.323 173.416L568.552 62.4297C559.962 53.8229 546.033 53.8229 537.443 62.4297C528.852 71.0365 528.852 84.9938 537.443 93.6006L646.612 202.984C650.992 207.373 653.793 213.104 654.573 219.266C655.583 227.322 653.712 235.508 649.192 242.251C648.872 242.722 648.662 243.022 648.592 243.093C640.002 251.699 640.002 265.657 648.592 274.263L967.742 594.038C972.042 598.346 977.672 600.491 983.302 600.491C988.932 600.491 994.562 598.336 998.862 594.038C1007.45 585.431 1007.45 571.474 998.862 562.867L947.412 511.316L980.902 406.892C985.132 410.86 990.522 412.874 995.932 412.874L995.902 412.864Z" fill="url(#paint8_linear_847_4809)"/>
</g>
<g filter="url(#filter8_dd_847_4809)">
<path d="M1235.41 1235.68L919.32 918.974V897.412L1152.21 1130.76C1156.51 1135.07 1162.14 1137.21 1167.77 1137.21C1173.4 1137.21 1179.03 1135.06 1183.33 1130.76C1191.92 1122.15 1191.92 1108.19 1183.33 1099.59L919.33 835.07V765.674L1172.5 1019.34C1176.8 1023.65 1182.43 1025.79 1188.06 1025.79C1193.69 1025.79 1199.32 1023.64 1203.62 1019.34C1212.21 1010.73 1212.21 996.776 1203.62 988.169L632.049 415.5C623.619 407.054 609.87 406.423 601.14 414.568C591.97 423.125 591.78 437.503 600.56 446.3L663.57 509.434C673.7 519.584 673.01 536.226 662.08 545.504C652.36 553.75 637.95 553.159 628.94 544.132L611.77 526.928C603.34 518.481 589.589 517.85 580.859 525.996C571.699 534.553 571.499 548.931 580.279 557.728L681.08 658.725C686.84 664.497 681.879 674.276 673.839 673.033L663.87 663.044C655.83 654.988 642.89 653.936 634.06 661.12C633.43 661.631 632.839 662.162 632.289 662.723C628.929 666.13 624.449 668.194 619.669 668.194H610.45C605.77 668.194 601.289 666.33 597.979 663.024C589.549 654.577 575.8 653.946 567.07 662.092C557.91 670.649 557.709 685.027 566.489 693.824L593.159 720.546C598.009 725.406 600.09 732.379 598.7 739.102L597.19 746.417C596.35 750.465 594.219 754.082 591.299 756.997L591.26 757.037C582.67 765.644 582.67 779.601 591.26 788.208L1163.18 1361.25C1167.48 1365.56 1173.11 1367.7 1178.74 1367.7C1184.37 1367.7 1190 1365.55 1194.3 1361.25C1202.89 1352.64 1202.89 1338.68 1194.3 1330.08L839.68 974.763L844.45 972.308L1138.41 1266.84C1142.71 1271.15 1148.34 1273.3 1153.97 1273.3C1159.6 1273.3 1165.23 1271.14 1169.53 1266.84C1178.12 1258.24 1178.12 1244.28 1169.53 1235.67L885.609 951.187L888.02 949.954L1204.29 1266.84C1208.59 1271.15 1214.22 1273.3 1219.85 1273.3C1225.48 1273.3 1231.11 1271.14 1235.41 1266.84C1244 1258.24 1244 1244.28 1235.41 1235.67V1235.68Z" fill="url(#paint9_linear_847_4809)"/>
</g>
<g filter="url(#filter9_dd_847_4809)">
<path d="M1256.47 1459.6L853.31 1055.65L855.65 1052.8L1193.7 1391.52C1198 1395.82 1203.63 1397.97 1209.26 1397.97C1214.89 1397.97 1220.52 1395.81 1224.82 1391.52C1233.41 1382.91 1233.41 1368.95 1224.82 1360.35L653.27 787.677C644.84 779.231 631.09 778.599 622.36 786.745C613.2 795.302 613 809.68 621.78 818.477L655.72 852.484C660.95 857.724 663.26 865.199 661.9 872.483L661.85 872.733C660.9 877.813 658.15 882.302 654.31 885.739C654.01 885.999 653.73 886.28 653.44 886.56C644.85 895.167 644.85 909.124 653.44 917.731L666.09 930.406C676.95 941.287 674.41 959.553 660.99 967.047C651.96 972.087 640.68 970.514 633.37 963.19L565.18 894.866C556.75 886.42 543 885.789 534.27 893.935C525.11 902.491 524.91 916.869 533.69 925.667L585.55 977.628C594.22 986.315 594.39 1000.35 585.93 1009.25C577.18 1018.46 562.57 1018.63 553.6 1009.64L424.49 880.278C416.06 871.831 402.31 871.2 393.58 879.346C384.42 887.903 384.22 902.281 393 911.078L425.23 943.371C432.79 950.946 429.52 963.861 419.27 966.917C414.31 968.39 408.94 967.027 405.28 963.36L391.79 949.844C383.71 941.748 369.79 940.977 361.26 948.601C360.24 949.513 359.32 950.495 358.51 951.537C354.97 956.086 349.43 958.591 343.69 958.17C339.58 957.87 335.73 956.096 332.81 953.18L262.35 882.582C253.91 874.126 240.17 873.505 231.44 881.651C222.28 890.207 222.08 904.585 230.86 913.383L267.4 949.994C273.34 955.946 275.9 964.472 274.22 972.719L274.12 973.199C273.17 977.889 270.8 982.127 267.56 985.654C266.34 986.976 265.26 988.519 264.36 990.313C259.9 999.23 261.99 1010.06 269.03 1017.12L840.05 1589.25C844.35 1593.56 849.98 1595.71 855.61 1595.71C861.24 1595.71 866.87 1593.55 871.17 1589.25C879.76 1580.65 879.76 1566.69 871.17 1558.08L635.03 1321.48L636.44 1319.76L802.78 1486.42C807.08 1490.73 812.71 1492.87 818.34 1492.87C823.97 1492.87 829.6 1490.72 833.9 1486.42C842.49 1477.82 842.49 1463.86 833.9 1455.25L664.54 1285.56L664.57 1285.52L932.24 1553.71C936.54 1558.02 942.17 1560.17 947.8 1560.17C953.43 1560.17 959.06 1558.01 963.36 1553.71C971.95 1545.11 971.95 1531.15 963.36 1522.54L692.67 1251.32L710.68 1229.39L964.93 1484.14C969.23 1488.45 974.86 1490.59 980.49 1490.59C986.12 1490.59 991.75 1488.44 996.05 1484.14C1004.64 1475.53 1004.64 1461.57 996.05 1452.97L738.77 1195.18L767.61 1160.05L1105.62 1498.73C1109.92 1503.03 1115.55 1505.18 1121.18 1505.18C1126.81 1505.18 1132.44 1503.02 1136.74 1498.73C1145.33 1490.12 1145.33 1476.16 1136.74 1467.55L795.71 1125.86L825.24 1089.89L1225.37 1490.8C1229.67 1495.11 1235.3 1497.25 1240.93 1497.25C1246.56 1497.25 1252.19 1495.1 1256.49 1490.8C1265.08 1482.19 1265.08 1468.24 1256.49 1459.63L1256.47 1459.6Z" fill="url(#paint10_linear_847_4809)"/>
</g>
</g>
<defs>
<filter id="filter0_dd_847_4809" x="174.64" y="24.5594" width="68" height="68.0786" filterUnits="userSpaceOnUse" color-interpolation-filters="sRGB">
<feFlood flood-opacity="0" result="BackgroundImageFix"/>
<feColorMatrix in="SourceAlpha" type="matrix" values="0 0 0 0 0 0 0 0 0 0 0 0 0 0 0 0 0 0 127 0" result="hardAlpha"/>
<feMorphology radius="4" operator="erode" in="SourceAlpha" result="effect1_dropShadow_847_4809"/>
<feOffset dy="4"/>
<feGaussianBlur stdDeviation="3"/>
<feColorMatrix type="matrix" values="0 0 0 0 0.0627451 0 0 0 0 0.0941176 0 0 0 0 0.156863 0 0 0 0.1 0"/>
<feBlend mode="normal" in2="BackgroundImageFix" result="effect1_dropShadow_847_4809"/>
<feColorMatrix in="SourceAlpha" type="matrix" values="0 0 0 0 0 0 0 0 0 0 0 0 0 0 0 0 0 0 127 0" result="hardAlpha"/>
<feMorphology radius="3" operator="erode" in="SourceAlpha" result="effect2_dropShadow_847_4809"/>
<feOffset dy="10"/>
<feGaussianBlur stdDeviation="7.5"/>
<feColorMatrix type="matrix" values="0 0 0 0 0.0627451 0 0 0 0 0.0941176 0 0 0 0 0.156863 0 0 0 0.1 0"/>
<feBlend mode="normal" in2="effect1_dropShadow_847_4809" result="effect2_dropShadow_847_4809"/>
<feBlend mode="normal" in="SourceGraphic" in2="effect2_dropShadow_847_4809" result="shape"/>
</filter>
<filter id="filter1_dd_847_4809" x="587.372" y="202.134" width="68" height="68.0786" filterUnits="userSpaceOnUse" color-interpolation-filters="sRGB">
<feFlood flood-opacity="0" result="BackgroundImageFix"/>
<feColorMatrix in="SourceAlpha" type="matrix" values="0 0 0 0 0 0 0 0 0 0 0 0 0 0 0 0 0 0 127 0" result="hardAlpha"/>
<feMorphology radius="4" operator="erode" in="SourceAlpha" result="effect1_dropShadow_847_4809"/>
<feOffset dy="4"/>
<feGaussianBlur stdDeviation="3"/>
<feColorMatrix type="matrix" values="0 0 0 0 0.0627451 0 0 0 0 0.0941176 0 0 0 0 0.156863 0 0 0 0.1 0"/>
<feBlend mode="normal" in2="BackgroundImageFix" result="effect1_dropShadow_847_4809"/>
<feColorMatrix in="SourceAlpha" type="matrix" values="0 0 0 0 0 0 0 0 0 0 0 0 0 0 0 0 0 0 127 0" result="hardAlpha"/>
<feMorphology radius="3" operator="erode" in="SourceAlpha" result="effect2_dropShadow_847_4809"/>
<feOffset dy="10"/>
<feGaussianBlur stdDeviation="7.5"/>
<feColorMatrix type="matrix" values="0 0 0 0 0.0627451 0 0 0 0 0.0941176 0 0 0 0 0.156863 0 0 0 0.1 0"/>
<feBlend mode="normal" in2="effect1_dropShadow_847_4809" result="effect2_dropShadow_847_4809"/>
<feBlend mode="normal" in="SourceGraphic" in2="effect2_dropShadow_847_4809" result="shape"/>
</filter>
<filter id="filter2_dd_847_4809" x="474.789" y="846.704" width="68" height="68.0786" filterUnits="userSpaceOnUse" color-interpolation-filters="sRGB">
<feFlood flood-opacity="0" result="BackgroundImageFix"/>
<feColorMatrix in="SourceAlpha" type="matrix" values="0 0 0 0 0 0 0 0 0 0 0 0 0 0 0 0 0 0 127 0" result="hardAlpha"/>
<feMorphology radius="4" operator="erode" in="SourceAlpha" result="effect1_dropShadow_847_4809"/>
<feOffset dy="4"/>
<feGaussianBlur stdDeviation="3"/>
<feColorMatrix type="matrix" values="0 0 0 0 0.0627451 0 0 0 0 0.0941176 0 0 0 0 0.156863 0 0 0 0.1 0"/>
<feBlend mode="normal" in2="BackgroundImageFix" result="effect1_dropShadow_847_4809"/>
<feColorMatrix in="SourceAlpha" type="matrix" values="0 0 0 0 0 0 0 0 0 0 0 0 0 0 0 0 0 0 127 0" result="hardAlpha"/>
<feMorphology radius="3" operator="erode" in="SourceAlpha" result="effect2_dropShadow_847_4809"/>
<feOffset dy="10"/>
<feGaussianBlur stdDeviation="7.5"/>
<feColorMatrix type="matrix" values="0 0 0 0 0.0627451 0 0 0 0 0.0941176 0 0 0 0 0.156863 0 0 0 0.1 0"/>
<feBlend mode="normal" in2="effect1_dropShadow_847_4809" result="effect2_dropShadow_847_4809"/>
<feBlend mode="normal" in="SourceGraphic" in2="effect2_dropShadow_847_4809" result="shape"/>
</filter>
<filter id="filter3_dd_847_4809" x="197" y="936.75" width="68" height="68.0786" filterUnits="userSpaceOnUse" color-interpolation-filters="sRGB">
<feFlood flood-opacity="0" result="BackgroundImageFix"/>
<feColorMatrix in="SourceAlpha" type="matrix" values="0 0 0 0 0 0 0 0 0 0 0 0 0 0 0 0 0 0 127 0" result="hardAlpha"/>
<feMorphology radius="4" operator="erode" in="SourceAlpha" result="effect1_dropShadow_847_4809"/>
<feOffset dy="4"/>
<feGaussianBlur stdDeviation="3"/>
<feColorMatrix type="matrix" values="0 0 0 0 0.0627451 0 0 0 0 0.0941176 0 0 0 0 0.156863 0 0 0 0.1 0"/>
<feBlend mode="normal" in2="BackgroundImageFix" result="effect1_dropShadow_847_4809"/>
<feColorMatrix in="SourceAlpha" type="matrix" values="0 0 0 0 0 0 0 0 0 0 0 0 0 0 0 0 0 0 127 0" result="hardAlpha"/>
<feMorphology radius="3" operator="erode" in="SourceAlpha" result="effect2_dropShadow_847_4809"/>
<feOffset dy="10"/>
<feGaussianBlur stdDeviation="7.5"/>
<feColorMatrix type="matrix" values="0 0 0 0 0.0627451 0 0 0 0 0.0941176 0 0 0 0 0.156863 0 0 0 0.1 0"/>
<feBlend mode="normal" in2="effect1_dropShadow_847_4809" result="effect2_dropShadow_847_4809"/>
<feBlend mode="normal" in="SourceGraphic" in2="effect2_dropShadow_847_4809" result="shape"/>
</filter>
<filter id="filter4_dd_847_4809" x="-207.362" y="-331.476" width="428.008" height="682.959" filterUnits="userSpaceOnUse" color-interpolation-filters="sRGB">
<feFlood flood-opacity="0" result="BackgroundImageFix"/>
<feColorMatrix in="SourceAlpha" type="matrix" values="0 0 0 0 0 0 0 0 0 0 0 0 0 0 0 0 0 0 127 0" result="hardAlpha"/>
<feMorphology radius="4" operator="erode" in="SourceAlpha" result="effect1_dropShadow_847_4809"/>
<feOffset dy="4"/>
<feGaussianBlur stdDeviation="3"/>
<feColorMatrix type="matrix" values="0 0 0 0 0.0627451 0 0 0 0 0.0941176 0 0 0 0 0.156863 0 0 0 0.1 0"/>
<feBlend mode="normal" in2="BackgroundImageFix" result="effect1_dropShadow_847_4809"/>
<feColorMatrix in="SourceAlpha" type="matrix" values="0 0 0 0 0 0 0 0 0 0 0 0 0 0 0 0 0 0 127 0" result="hardAlpha"/>
<feMorphology radius="3" operator="erode" in="SourceAlpha" result="effect2_dropShadow_847_4809"/>
<feOffset dy="10"/>
<feGaussianBlur stdDeviation="7.5"/>
<feColorMatrix type="matrix" values="0 0 0 0 0.0627451 0 0 0 0 0.0941176 0 0 0 0 0.156863 0 0 0 0.1 0"/>
<feBlend mode="normal" in2="effect1_dropShadow_847_4809" result="effect2_dropShadow_847_4809"/>
<feBlend mode="normal" in="SourceGraphic" in2="effect2_dropShadow_847_4809" result="shape"/>
</filter>
<filter id="filter5_dd_847_4809" x="-353.433" y="-143.709" width="434.835" height="503.108" filterUnits="userSpaceOnUse" color-interpolation-filters="sRGB">
<feFlood flood-opacity="0" result="BackgroundImageFix"/>
<feColorMatrix in="SourceAlpha" type="matrix" values="0 0 0 0 0 0 0 0 0 0 0 0 0 0 0 0 0 0 127 0" result="hardAlpha"/>
<feMorphology radius="4" operator="erode" in="SourceAlpha" result="effect1_dropShadow_847_4809"/>
<feOffset dy="4"/>
<feGaussianBlur stdDeviation="3"/>
<feColorMatrix type="matrix" values="0 0 0 0 0.0627451 0 0 0 0 0.0941176 0 0 0 0 0.156863 0 0 0 0.1 0"/>
<feBlend mode="normal" in2="BackgroundImageFix" result="effect1_dropShadow_847_4809"/>
<feColorMatrix in="SourceAlpha" type="matrix" values="0 0 0 0 0 0 0 0 0 0 0 0 0 0 0 0 0 0 127 0" result="hardAlpha"/>
<feMorphology radius="3" operator="erode" in="SourceAlpha" result="effect2_dropShadow_847_4809"/>
<feOffset dy="10"/>
<feGaussianBlur stdDeviation="7.5"/>
<feColorMatrix type="matrix" values="0 0 0 0 0.0627451 0 0 0 0 0.0941176 0 0 0 0 0.156863 0 0 0 0.1 0"/>
<feBlend mode="normal" in2="effect1_dropShadow_847_4809" result="effect2_dropShadow_847_4809"/>
<feBlend mode="normal" in="SourceGraphic" in2="effect2_dropShadow_847_4809" result="shape"/>
</filter>
<filter id="filter6_dd_847_4809" x="-259.343" y="-173.828" width="463.755" height="399.636" filterUnits="userSpaceOnUse" color-interpolation-filters="sRGB">
<feFlood flood-opacity="0" result="BackgroundImageFix"/>
<feColorMatrix in="SourceAlpha" type="matrix" values="0 0 0 0 0 0 0 0 0 0 0 0 0 0 0 0 0 0 127 0" result="hardAlpha"/>
<feMorphology radius="4" operator="erode" in="SourceAlpha" result="effect1_dropShadow_847_4809"/>
<feOffset dy="4"/>
<feGaussianBlur stdDeviation="3"/>
<feColorMatrix type="matrix" values="0 0 0 0 0.0627451 0 0 0 0 0.0941176 0 0 0 0 0.156863 0 0 0 0.1 0"/>
<feBlend mode="normal" in2="BackgroundImageFix" result="effect1_dropShadow_847_4809"/>
<feColorMatrix in="SourceAlpha" type="matrix" values="0 0 0 0 0 0 0 0 0 0 0 0 0 0 0 0 0 0 127 0" result="hardAlpha"/>
<feMorphology radius="3" operator="erode" in="SourceAlpha" result="effect2_dropShadow_847_4809"/>
<feOffset dy="10"/>
<feGaussianBlur stdDeviation="7.5"/>
<feColorMatrix type="matrix" values="0 0 0 0 0.0627451 0 0 0 0 0.0941176 0 0 0 0 0.156863 0 0 0 0.1 0"/>
<feBlend mode="normal" in2="effect1_dropShadow_847_4809" result="effect2_dropShadow_847_4809"/>
<feBlend mode="normal" in="SourceGraphic" in2="effect2_dropShadow_847_4809" result="shape"/>
</filter>
<filter id="filter7_dd_847_4809" x="519" y="47.0959" width="510.905" height="575.395" filterUnits="userSpaceOnUse" color-interpolation-filters="sRGB">
<feFlood flood-opacity="0" result="BackgroundImageFix"/>
<feColorMatrix in="SourceAlpha" type="matrix" values="0 0 0 0 0 0 0 0 0 0 0 0 0 0 0 0 0 0 127 0" result="hardAlpha"/>
<feMorphology radius="4" operator="erode" in="SourceAlpha" result="effect1_dropShadow_847_4809"/>
<feOffset dy="4"/>
<feGaussianBlur stdDeviation="3"/>
<feColorMatrix type="matrix" values="0 0 0 0 0.0627451 0 0 0 0 0.0941176 0 0 0 0 0.156863 0 0 0 0.1 0"/>
<feBlend mode="normal" in2="BackgroundImageFix" result="effect1_dropShadow_847_4809"/>
<feColorMatrix in="SourceAlpha" type="matrix" values="0 0 0 0 0 0 0 0 0 0 0 0 0 0 0 0 0 0 127 0" result="hardAlpha"/>
<feMorphology radius="3" operator="erode" in="SourceAlpha" result="effect2_dropShadow_847_4809"/>
<feOffset dy="10"/>
<feGaussianBlur stdDeviation="7.5"/>
<feColorMatrix type="matrix" values="0 0 0 0 0.0627451 0 0 0 0 0.0941176 0 0 0 0 0.156863 0 0 0 0.1 0"/>
<feBlend mode="normal" in2="effect1_dropShadow_847_4809" result="effect2_dropShadow_847_4809"/>
<feBlend mode="normal" in="SourceGraphic" in2="effect2_dropShadow_847_4809" result="shape"/>
</filter>
<filter id="filter8_dd_847_4809" x="548.049" y="406.798" width="705.803" height="982.902" filterUnits="userSpaceOnUse" color-interpolation-filters="sRGB">
<feFlood flood-opacity="0" result="BackgroundImageFix"/>
<feColorMatrix in="SourceAlpha" type="matrix" values="0 0 0 0 0 0 0 0 0 0 0 0 0 0 0 0 0 0 127 0" result="hardAlpha"/>
<feMorphology radius="4" operator="erode" in="SourceAlpha" result="effect1_dropShadow_847_4809"/>
<feOffset dy="4"/>
<feGaussianBlur stdDeviation="3"/>
<feColorMatrix type="matrix" values="0 0 0 0 0.0627451 0 0 0 0 0.0941176 0 0 0 0 0.156863 0 0 0 0.1 0"/>
<feBlend mode="normal" in2="BackgroundImageFix" result="effect1_dropShadow_847_4809"/>
<feColorMatrix in="SourceAlpha" type="matrix" values="0 0 0 0 0 0 0 0 0 0 0 0 0 0 0 0 0 0 127 0" result="hardAlpha"/>
<feMorphology radius="3" operator="erode" in="SourceAlpha" result="effect2_dropShadow_847_4809"/>
<feOffset dy="10"/>
<feGaussianBlur stdDeviation="7.5"/>
<feColorMatrix type="matrix" values="0 0 0 0 0.0627451 0 0 0 0 0.0941176 0 0 0 0 0.156863 0 0 0 0.1 0"/>
<feBlend mode="normal" in2="effect1_dropShadow_847_4809" result="effect2_dropShadow_847_4809"/>
<feBlend mode="normal" in="SourceGraphic" in2="effect2_dropShadow_847_4809" result="shape"/>
</filter>
<filter id="filter9_dd_847_4809" x="212.419" y="778.975" width="1062.51" height="838.73" filterUnits="userSpaceOnUse" color-interpolation-filters="sRGB">
<feFlood flood-opacity="0" result="BackgroundImageFix"/>
<feColorMatrix in="SourceAlpha" type="matrix" values="0 0 0 0 0 0 0 0 0 0 0 0 0 0 0 0 0 0 127 0" result="hardAlpha"/>
<feMorphology radius="4" operator="erode" in="SourceAlpha" result="effect1_dropShadow_847_4809"/>
<feOffset dy="4"/>
<feGaussianBlur stdDeviation="3"/>
<feColorMatrix type="matrix" values="0 0 0 0 0.0627451 0 0 0 0 0.0941176 0 0 0 0 0.156863 0 0 0 0.1 0"/>
<feBlend mode="normal" in2="BackgroundImageFix" result="effect1_dropShadow_847_4809"/>
<feColorMatrix in="SourceAlpha" type="matrix" values="0 0 0 0 0 0 0 0 0 0 0 0 0 0 0 0 0 0 127 0" result="hardAlpha"/>
<feMorphology radius="3" operator="erode" in="SourceAlpha" result="effect2_dropShadow_847_4809"/>
<feOffset dy="10"/>
<feGaussianBlur stdDeviation="7.5"/>
<feColorMatrix type="matrix" values="0 0 0 0 0.0627451 0 0 0 0 0.0941176 0 0 0 0 0.156863 0 0 0 0.1 0"/>
<feBlend mode="normal" in2="effect1_dropShadow_847_4809" result="effect2_dropShadow_847_4809"/>
<feBlend mode="normal" in="SourceGraphic" in2="effect2_dropShadow_847_4809" result="shape"/>
</filter>
<linearGradient id="paint0_linear_847_4809" x1="198.12" y1="68.4738" x2="211.44" y2="43.4264" gradientUnits="userSpaceOnUse">
<stop stop-color="#1990C4"/>
<stop offset="1" stop-color="#2CADE7"/>
</linearGradient>
<linearGradient id="paint1_linear_847_4809" x1="610.852" y1="246.048" x2="624.163" y2="221.001" gradientUnits="userSpaceOnUse">
<stop stop-color="#1990C4"/>
<stop offset="1" stop-color="#2CADE7"/>
</linearGradient>
<linearGradient id="paint2_linear_847_4809" x1="498.269" y1="890.618" x2="511.58" y2="865.561" gradientUnits="userSpaceOnUse">
<stop stop-color="#1990C4"/>
<stop offset="1" stop-color="#2CADE7"/>
</linearGradient>
<linearGradient id="paint3_linear_847_4809" x1="220.48" y1="980.664" x2="233.791" y2="955.617" gradientUnits="userSpaceOnUse">
<stop stop-color="#1990C4"/>
<stop offset="1" stop-color="#2CADE7"/>
</linearGradient>
<linearGradient id="paint4_linear_847_4809" x1="80.8794" y1="371.385" x2="94.2" y2="346.338" gradientUnits="userSpaceOnUse">
<stop stop-color="#1990C4"/>
<stop offset="1" stop-color="#2CADE7"/>
</linearGradient>
<linearGradient id="paint5_linear_847_4809" x1="-195.36" y1="-1.02123e-05" x2="208.64" y2="-1.02123e-05" gradientUnits="userSpaceOnUse">
<stop stop-color="#1990C4"/>
<stop offset="1" stop-color="#2CADE7"/>
</linearGradient>
<linearGradient id="paint6_linear_847_4809" x1="-341.44" y1="97.8511" x2="69.3999" y2="97.8511" gradientUnits="userSpaceOnUse">
<stop stop-color="#1990C4"/>
<stop offset="1" stop-color="#0B8BC2"/>
</linearGradient>
<linearGradient id="paint7_linear_847_4809" x1="-232" y1="-63.1233" x2="192.644" y2="274.729" gradientUnits="userSpaceOnUse">
<stop stop-color="#33A9DD"/>
<stop offset="1" stop-color="#0B8BC2"/>
</linearGradient>
<linearGradient id="paint8_linear_847_4809" x1="1122.05" y1="521.587" x2="659.871" y2="211.346" gradientUnits="userSpaceOnUse">
<stop stop-color="#1990C4"/>
<stop offset="1" stop-color="#2CADE7"/>
</linearGradient>
<linearGradient id="paint9_linear_847_4809" x1="1373.5" y1="1169.78" x2="644.007" y2="637.101" gradientUnits="userSpaceOnUse">
<stop stop-color="#1990C4"/>
<stop offset="1" stop-color="#2CADE7"/>
</linearGradient>
<linearGradient id="paint10_linear_847_4809" x1="210" y1="701.37" x2="661.51" y2="1223.52" gradientUnits="userSpaceOnUse">
<stop stop-color="#1990C4"/>
<stop offset="1" stop-color="#2CADE7"/>
</linearGradient>
<clipPath id="clip0_847_4809">
<rect width="720" height="1024" fill="white"/>
</clipPath>
</defs>
</svg>
