<?xml version="1.0" encoding="UTF-8"?><svg id="a" xmlns="http://www.w3.org/2000/svg" xmlns:xlink="http://www.w3.org/1999/xlink" viewBox="0 0 2097.27 1655.72"><defs><style>.y{fill:url(#t);}.a`{fill:#fff;}.aa{fill:#eea886;}.ab{fill:url(#r);}.ac{fill:#ab9546;}.ad{fill:#ffdf69;}.ae{fill:url(#e);}.ae,.af,.ag,.ah,.ai{opacity:.95;}.aj{fill:#f5e2d9;}.ak{fill:url(#l);}.al{fill:#51565c;}.am{fill:#285173;}.an{fill:#2d3133;}.af{fill:url(#b);}.ao{fill:#e0cec7;}.ap{fill:url(#u);}.aq{fill:#323657;}.ar{fill:url(#v);}.as{fill:#decbc4;}.at{fill:#d44040;}.au{fill:url(#f);}.ah{fill:url(#m);}.av{fill:#163342;}.aw{fill:#4598e6;}.ax{fill:url(#p);}.ay{fill:#344052;}.b`{fill:url(#g);}.ba{fill:#1d3b54;}.bb{fill:#e8734d;}.bc{fill:url(#i);}.bd{fill:#0e2d3d;}.be{fill:#eb4747;}.bf{fill:url(#h);}.bg{fill:#616161;}.bh{fill:url(#d);}.ai{fill:url(#c);}.bi{fill:#96bfe6;}.bj{fill:#ffbf55;}.bk{fill:#424773;}.bl{fill:url(#x);}.bm{fill:#a77860;}.bn{fill:url(#s);}.bo{fill:#292c47;}.bp{fill:#eea987;}.bq{fill:#434343;}.br{fill:url(#n);}.bs{fill:#183c59;}.bt{fill:#3a3f47;}.bu{fill:url(#w);}.bv{fill:url(#j);}.bw{fill:#3c4145;}.bx{fill:url(#o);}.by{fill:#e2d2ca;}.c`{fill:url(#q);}.ca{fill:#393d63;}.cb{fill:url(#k);}.cc{fill:#385369;}</style><linearGradient id="b" x1="1062.55" y1="1179.14" x2="1021.36" y2="432.58" gradientTransform="matrix(1, 0, 0, 1, 0, 0)" gradientUnits="userSpaceOnUse"><stop offset="0" stop-color="#d1d7e0"/><stop offset="1" stop-color="#ebebff"/></linearGradient><linearGradient id="c" x1="1736.33" y1="1387.28" x2="1736.33" y2="618.68" xlink:href="#b"/><linearGradient id="d" x1="0" y1="1609.35" x2="1981.46" y2="1609.35" gradientTransform="matrix(1, 0, 0, 1, 0, 0)" gradientUnits="userSpaceOnUse"><stop offset="0" stop-color="#036984"/><stop offset="1" stop-color="#029ce2"/></linearGradient><linearGradient id="e" x1="1024.87" y1="912.65" x2="1024.87" y2="350.65" xlink:href="#b"/><linearGradient id="f" x1="-4092.39" y1="1234.48" x2="-3965" y2="1234.48" gradientTransform="translate(-3643.22) rotate(-180) scale(1 -1)" gradientUnits="userSpaceOnUse"><stop offset="0" stop-color="#02832c"/><stop offset="1" stop-color="#30c715"/></linearGradient><linearGradient id="g" x1="-3993.42" y1="1339.64" x2="-3761.83" y2="1339.64" xlink:href="#f"/><linearGradient id="h" x1="-3973.62" y1="1373.31" x2="-3799.8" y2="1373.31" xlink:href="#f"/><linearGradient id="i" x1="-4183.73" y1="1196.74" x2="-3922.71" y2="1196.74" xlink:href="#f"/><linearGradient id="j" x1="385.1" y1="1481.67" x2="233.12" y2="1025.74" gradientTransform="matrix(1, 0, 0, 1, 0, 0)" xlink:href="#f"/><linearGradient id="k" x1="267.51" y1="1779.43" x2="343.5" y2="1451.85" gradientTransform="matrix(1, 0, 0, 1, 0, 0)" gradientUnits="userSpaceOnUse"><stop offset="0" stop-color="#c9c4c1"/><stop offset="1" stop-color="#fff6de"/></linearGradient><linearGradient id="l" x1="233.29" y1="1523.8" x2="420.09" y2="1523.8" gradientTransform="translate(19.53)" xlink:href="#k"/><linearGradient id="m" x1="1534.18" y1="437.52" x2="1534.18" y2="120.94" xlink:href="#b"/><linearGradient id="n" x1="1972.66" y1="348.53" x2="2012.03" y2="348.53" xlink:href="#b"/><linearGradient id="o" x1="1958.56" y1="348.53" x2="1974.97" y2="348.53" xlink:href="#b"/><linearGradient id="p" x1="1859.59" y1="330.53" x2="1985.7" y2="330.53" xlink:href="#b"/><linearGradient id="q" x1="1159.26" y1="22.43" x2="1210.98" y2="22.43" xlink:href="#b"/><linearGradient id="r" x1="1159.26" y1="59.8" x2="1210.98" y2="59.8" xlink:href="#b"/><linearGradient id="s" x1="1159.26" y1="97.18" x2="1210.98" y2="97.18" xlink:href="#b"/><linearGradient id="t" x1="1232.34" y1="22.43" x2="1247.05" y2="22.43" xlink:href="#b"/><linearGradient id="u" x1="1232.34" y1="59.8" x2="1247.05" y2="59.8" xlink:href="#b"/><linearGradient id="v" x1="1232.34" y1="97.18" x2="1247.05" y2="97.18" xlink:href="#b"/><linearGradient id="w" x1="1027.43" y1="854.8" x2="1098.1" y2="854.8" xlink:href="#b"/><linearGradient id="x" x1="1002.11" y1="854.8" x2="1031.57" y2="854.8" xlink:href="#b"/></defs><path class="af" d="M819.81,232.59h410.13c32.38,0,58.67,26.29,58.67,58.67v410.12c0,32.38-26.29,58.67-58.67,58.67h-410.13c-32.38,0-58.67-26.29-58.67-58.67V291.26c0-32.38,26.29-58.67,58.67-58.67Z"/><rect class="bi" x="902.77" y="639.97" width="244.21" height="12.06"/><rect class="bi" x="937.36" y="677.98" width="175.03" height="12.06"/><rect class="ai" x="1375.38" y="415.53" width="721.89" height="847.34" rx="69.12" ry="69.12"/><rect class="aw" x="1702.69" y="915.41" width="57.26" height="10.6"/><g><rect class="bi" x="1485.32" y="1012.57" width="333.16" height="20.53"/><rect class="bi" x="1485.32" y="1111.14" width="269.41" height="20.53"/><rect class="bi" x="1485.32" y="1061.86" width="157.94" height="20.53"/></g><path class="aw" d="M1905.64,500.03v10.37h61.05v57.3h10.37v-67.67h-71.42Zm-414.59,67.67h10.37v-57.3h61.05v-10.37h-71.42v67.67Zm475.64,295.66v57.32h-61.05v10.37h71.42v-67.69h-10.37Zm-465.27,0h-10.37v67.69h71.42v-10.37h-61.05v-57.32Z"/><g><path class="aw" d="M1944.74,1133.18c-33.67,0-61.06-27.39-61.06-61.06s27.39-61.06,61.06-61.06,61.06,27.39,61.06,61.06-27.39,61.06-61.06,61.06Zm0-110.3c-27.15,0-49.24,22.09-49.24,49.24s22.09,49.24,49.24,49.24,49.24-22.09,49.24-49.24-22.09-49.24-49.24-49.24Z"/><polygon class="aw" points="1940.85 1096.15 1913.11 1068.41 1921.46 1060.06 1940.85 1079.44 1968.02 1052.27 1976.37 1060.62 1940.85 1096.15"/></g><path class="bh" d="M1981.46,1609.35c0,25.61-443.56,46.37-990.73,46.37S0,1634.96,0,1609.35s443.56-46.37,990.73-46.37,990.73,20.76,990.73,46.37Z"/><rect class="ae" x="847.11" y="252.31" width="355.53" height="305.04"/><g><path class="cc" d="M1160.67,438.01c-11.71-30.97-39.84-45.2-53.12-49.63-4.73-1.57-13.17-4.33-22.07-7.21-16.04-5.18-33.56-10.82-33.56-10.82h-55.33s-19.16,6.42-39.52,13.56c0,.02-.02,.02-.02,.02-18.76,6.58-38.51,13.75-45.18,17.1-13.91,6.94-37.31,56.59-42.04,62.28-2.44,2.93-13.3,22.27-23.98,43.87h59.61c6.3-10.82,11.15-19.21,11.15-19.21,0,0,3.77,8.27,8.34,19.21h190.97c3.02-12.7,4.9-28.71,4.9-28.71,0,0,10.23,13.91,21.39,28.71h55.04c-13.38-22.46-30-51.69-36.59-69.17Z"/><path class="aa" d="M1030.85,218.3s43.27,6.82,36.68,74.51c-6.59,67.69-44.77,62.15-47.33,62.08-2.55-.07-38.33,1.23-41.12-81.42,0,0-1.22-61.12,51.77-55.17Z"/><path class="aa" d="M1068.2,273.69s4.74-5.06,6.48,.06c1.74,5.12-6.46,27.97-6.76,29.04,0,0-.87,1.99-2,.89-1.14-1.09,2.28-30,2.28-30Z"/><path class="aa" d="M980.24,272.84s-4.64-5.15-6.48-.06c-1.84,5.09,5.85,28.09,6.2,29.17,0,0,.83,2,1.98,.93,1.16-1.07-1.7-30.04-1.7-30.04Z"/><path class="bq" d="M1068.18,284.08l-6.19,8.28s.17-18.16-.82-21c-.99-2.85-2.51-11.54-3.35-13.59-.83-2.05-37.15-12.23-69.24,2.97,0,0,1.41,13.05-1.66,14.22-3.07,1.16-1.57,21.26-1.57,21.26l-5.09-5.75s-7.79-52.08-5.87-57.51c1.92-5.43,8.06-38.06,73.88-18.69,0,0,20.52-4.35,24.64,9.82,4.12,14.17-4.73,59.99-4.73,59.99Z"/><path class="aa" d="M1057.29,369.14c-.02-.06-5.55-2.73-5.55-2.73-2.7-6.03-.69-31.46-.69-31.46,0,0-55.11-14.03-53.53-3.3,1.57,10.72-4.75,35.64-4.75,35.64l-28.27,14.04s30.12,80.88,64.74,70.44c34.62-10.43,47.69-73.36,47.69-73.36l-19.63-9.28Z"/><path class="bm" d="M998.31,343.57s8.88,11.46,24.29,11.46c10.14,0,17.41-2.84,27.51-12.69,0,0-4.38,18.7-27.44,20.44,0,0-16.73,2.13-24.36-19.21Z"/></g><g><path class="bd" d="M839.22,615.12s31.79,15.55,23.93,57.86c-7.86,42.31-11.34,48.01-2.55,64.54,8.79,16.53,19.17,87.05,11.25,100.42-7.91,13.37-97.96-58.74-110.44-119.23-12.49-60.5,7.91-87.4,15.12-97.43,7.21-10.02,34.61-20.4,62.68-6.16Z"/><path class="av" d="M827.23,1596.99h7.21v-33.98s14.13,9.42,23,22.45c8.87,13.03,21.06,11.92,39.63,11.09,18.57-.83,17.74-8.31,16.07-18.84-1.66-10.53-20.51-13.86-26.61-15.52-6.1-1.66-19.94-25.51-24.39-31.32-6.07-7.92-9.28-15.52-9.28-15.52,0,0-3.46-14.13-20.65,0-17.18,14.13-12.19,41.29-10.25,43.79,1.94,2.49,5.27,37.86,5.27,37.86Z"/><path class="aa" d="M863.53,1562.18c6.37,4.16,23,0,23,0-4.71-6.1-33.67-46.83-33.67-46.83-17.6-10.25-24.55,3.86-24.55,3.86,7.18,2.19,28.85,38.82,35.22,42.98Z"/><path class="aa" d="M1048.83,935.26s11.54,2.21,15.48-3.21c3.35-4.61,11.01-8.15,13.37-9.24,3.15-1.46,11.16-9.56,13.04-5.6,1.88,3.96-12.55,13.98-15.16,16.69-2.61,2.71,14.15,3.9,17.05,6.54,2.89,2.63-.67,30.28-12.07,28.13-11.41-2.15-22.18-11.98-24.26-11.96-2.08,.02-8.36-1.24-8.36-1.24l.92-20.09Z"/><path class="aa" d="M1090.06,939.29s34.49,8.91,36.29,11.43c1.8,2.52,1.21,4.36-2.05,3.66-3.26-.7-33.57-7.65-33.57-7.65,0,0,39.05,17.41,40.98,19.15,1.13,1.02,.19,4.65-1.59,4.44-1.78-.21-41.47-15.25-41.47-15.25,0,0,36.43,16.32,37.61,18.25,1.03,1.69-.66,4.81-3.45,3.79-2.78-1.02-37.45-14.26-37.45-14.26,0,0,25.77,13.54,25.8,15.77,.02,1.36-.65,4.54-7.19,.83-6.54-3.7-22.89-10.82-22.89-10.82l8.98-29.34Z"/><path class="av" d="M733.86,1599.31h4.43v-24.94s7.89,8.11,11.49,20.03c3.6,11.92,16.5,15.45,36.18,14.9,19.68-.55,19.95-8.32,18.29-19.96-1.66-11.64-18.29-17.74-18.29-17.74-7.48-6.65-26.05-34.23-26.05-34.23,0,0-11.92-3.19-21.27,4.36-9.35,7.55-6.44,24.6-6.17,29.03,.28,4.43,1.39,28.54,1.39,28.54Z"/><path class="ba" d="M747.44,1005.14s-23.45,30.48-29.81,66.65c-6.36,36.17,3.76,157.55,3.48,175.43-.28,17.88-16.91,62.36-13.58,96.03,3.33,33.67,16.45,201.26,16.45,201.26l35.93-7.13s-2.08-170.85,0-184.99c2.08-14.13,6.25-65.65,7.08-71.47,.83-5.82,52.78-158.64,52.78-184.71s-15.8-133.6-72.33-91.06Z"/><path class="ba" d="M865.22,1017.05s38.52,147.02,43.09,167.39c4.57,20.37,11.2,37.17,11.2,45.82,0,20.07-7.46,52.29-7.46,52.29l-48.92,233.95h-46.59s25.96-140.36,26.66-167.8c.7-27.51,21.87-66.57,17.72-78.21-4.16-11.64-66.93-145.91-66.93-145.91,0,0-47.53-150.21,71.22-107.53Z"/><path class="aa" d="M785.96,1571.6l-26.05-34.23-21.27,4.36s5.72,15.32,16.06,26.84c12.24,13.65,31.26,3.02,31.26,3.02Z"/><path class="am" d="M849.31,767.21s15.88,1.5,27.88,14.36c12,12.86,23.26,33.36,26.41,40.22,3.14,6.86,47.2,70.41,49.49,71.84,2.29,1.43,24.43,8.83,39.11,13.77,22.64,7.62,68.04,24.12,68.04,24.12l-9.01,28.54s-85.35-27.93-106.73-33.2c-26.14-6.44-86.31-83.64-86.31-83.64,0,0-44.86-52.57-8.86-76Z"/><path class="bj" d="M821.6,756.07s20.57,9.71,27.72,11.14c7.14,1.43,34.86,37.43,39.72,50.57,4.86,13.14,0,32.86-10,56-10,23.14-.57,30.86-5.14,54-4.57,23.14-3.1,109.73-2.24,122.58,.86,12.86-133.74,32.35-160.31,8.92,0,0,17.99-78.03,39.29-100.3,4.61-4.82,4.12-36.91,.98-44.91-3.14-8-38.57-67.72-38.57-67.72,0,0-2.6-60.57,12.86-72.57,13.43-10.43,50.03-14.15,56.6-16.43,6.57-2.29,25.69-3.28,39.12-1.28Z"/><path class="aa" d="M831.42,732.33s-.61,5.66-1.32,13.32c-.27,3.03-.57,6.37-.85,9.8-.82,10.26-1.47,21.28-1.08,26.91,0,0-21.38,21.43-45.69-25,0,0,10.22-19.15,2.52-45.21-7.7-26.08,46.41,20.18,46.41,20.18Z"/><path class="bs" d="M891.25,882.32s5.15-34.23-.33-55.04c0,0,0,17.9-9.81,43.31l10.14,11.73Z"/><path class="aa" d="M766.05,760.65s14.7,43.43,55.08,40.24c40.37-3.2,19.14-36.67,19.14-36.67,0,0-10.06-5.77-12.89-6.31-2.83-.54-44.64-1.07-44.64-1.07l-16.69,3.82Z"/><path class="am" d="M840.27,764.21s21.15,58.49,21.15,118.11,1.7,156.73,9.09,187.4c7.38,30.67,28.4,125.51,28.4,125.51l16.47-8.52s-39.6-151.37-42.59-162.28c-2.99-10.92,2.27-126.22,5.11-135.88,2.84-9.66,14.92-52.63,13.04-64.55-2.37-15.03-16.43-37.27-39.15-56.39l-11.51-3.4Z"/><path class="am" d="M774.03,758.82s13.14,42.08,19.8,95.98c6.66,53.9-20.44,304.08-38.62,360.87l-70.42-11.36s15.16-176.84,35.74-209.02c20.58-32.18,27.13-60.66,4.91-127.83-22.21-67.17,9.74-100.44,9.74-100.44,0,0,32.68-7.51,38.85-8.21Z"/><polygon class="bg" points="850.01 937.28 764.62 1085.18 669.7 1030.38 751.38 880.34 850.01 937.28"/><polygon class="ao" points="839.71 942.37 763.88 1073.72 679.58 1025.05 752.12 891.8 839.71 942.37"/><polygon class="bg" points="811.74 930.57 817.06 921.35 782.98 901.68 776.32 910.13 811.74 930.57"/><path class="aa" d="M807.67,1035.51s-3.88,.02-5.58-.8c0,0-2.98-1.73-5.18-2.83-.7-.35-1.31-.63-1.73-.78-1.74-.6-5.74-1.4-9.52-4.03-3.77-2.62-17.14-18.1-17.14-18.1l6.31-9.6,4.63-9.83s28.07,1.81,31.87,3.85c.37,.2,.73,.41,1.05,.64,3.05,2.03,4.46,4.83,5.94,6.08,.54,.46,5.6,5.42,5.42,7.53-.24,2.93-1.6,4.86-3.36,5.82,0,0-.73,5.71-3.54,8.38,0,0-.5,5.29-4.95,7.61,0,0-1.11,5.31-4.23,6.08Z"/><path class="am" d="M749.81,767.21s-25.93-7.43-40.79,21.14c-14.86,28.57-14.78,40.76-16.77,54.72-1.88,13.17-10.34,49.14-11.2,52.86-.86,3.71-20.03,48.01-11.24,63.49,8.84,15.56,98.58,61.37,98.01,64.79-.57,3.43,15.54-34.63,15.54-34.63,0,0-36.32-20.24-42.26-26.47-9.66-10.12-30.04-21.03-25.85-33.59,4.92-14.75,19.69-64.52,23.12-71.81,3.43-7.29,33.29-81.21,11.43-90.5Z"/><path class="bp" d="M834.61,619.82s46.16,14.51,21.1,94.17c-25.06,79.66-88.11-9.23-81.51-57.77,6.59-48.54,60.41-36.4,60.41-36.4Z"/><path class="bd" d="M860.43,666.3s-22.94,22.51-61.33,25.32c0,0-14.75,17.3-15.89,24.09,0,0-34.25-58.38,7.85-93.38,42.1-35,84.84,29.54,69.36,43.96Z"/><path class="bp" d="M799.57,693.21c-.3-5.8-3.87-18.99-12.49-15.3s.53,30.56,6.24,28.91c0,0,6.95,.11,6.24-13.61Z"/><path class="bm" d="M830.1,745.65c-.27,3.03-.57,6.37-.85,9.8,0,0-20.38-1.21-33.99-31.52,.89,1.32,15.82,23.25,34.84,21.73Z"/></g><g><path class="au" d="M324.6,1474.18c29.6-20.82,64.24-165.88,66.31-252.29,1.06-44.26,14.14-62.7,25.68-78.97,11.03-15.55,20.56-28.98,15.01-59.82-10.61-58.93,17.28-84.37,17.57-84.62l-3.23-3.68c-1.24,1.09-30.29,27.33-19.16,89.17,5.19,28.81-3.36,40.86-14.19,56.12-11.36,16.01-25.49,35.93-26.59,81.69-2.22,92.73-37.63,229.7-64.23,248.4l2.82,4Z"/><path class="b`" d="M262.55,1431.86c-2.8-6.33-5.69-12.88-8.96-19.79-16.91-35.69-31.89-41.57-56.7-51.31-6.06-2.38-12.94-5.08-20.48-8.47-35.55-15.98-28.67-39.52-22.59-60.29,.85-2.91,1.7-5.8,2.43-8.67,3.13-12.22-2.88-18.35-11.97-27.62-6.76-6.9-15.17-15.48-21.65-29.03-7.1-14.83-3.48-22.79,.8-26.85,9.02-8.55,29.81-6.97,49.44,3.75,6.1,3.33,11.12,8.59,16.44,14.15,12.52,13.11,28.09,29.42,67.49,29.6,22.46,.11,34.77,3.21,41.14,10.37,7.23,8.12,5.87,20.29,3.98,37.13-.65,5.82-1.39,12.42-1.84,19.56-2.68,42.55,22.44,73.24,22.69,73.54,15.01,17.87,33.49,54.94,25.51,77.76-3.34,9.57-10.82,15.58-22.23,17.89-4.54,.92-8.7,1.36-12.52,1.36-27.55,0-37.64-22.85-50.97-53.07Zm-92.03-223.99c-17.53-9.57-36.33-11.5-43.73-4.49-5.62,5.33-2.97,14.46,.24,21.18,6.13,12.82,13.89,20.74,20.73,27.72,9.51,9.71,17.03,17.38,13.22,32.26-.75,2.92-1.61,5.87-2.47,8.83-6.05,20.69-11.76,40.22,19.9,54.45,7.44,3.34,14.25,6.02,20.26,8.38,25.05,9.83,41.6,16.33,59.34,53.77,3.3,6.97,6.2,13.55,9.01,19.91,15.31,34.71,24.56,55.66,58.04,48.89,9.6-1.94,15.85-6.89,18.58-14.71,7.03-20.11-9.79-55.31-24.65-73-1.09-1.3-26.62-32.43-23.82-76.99,.46-7.25,1.2-13.91,1.86-19.79,1.75-15.58,3.01-26.83-2.77-33.33-5.28-5.94-16.85-8.63-37.5-8.73-41.47-.19-57.85-17.34-71-31.11-5.26-5.51-9.81-10.27-15.24-13.24h0Z"/><path class="bf" d="M325.51,1513.19l4.89-.26c-.24-4.59-6.41-112.85-49.88-144.54-47.69-34.76-62.73-72.12-69.89-97.19-8.44-29.55-51.39-37.44-53.21-37.76l-.85,4.82c.42,.07,41.76,7.69,49.35,34.29,7.36,25.77,22.8,64.15,71.71,99.8,41.61,30.33,47.81,139.74,47.87,140.84Z"/><path class="bc" d="M317.24,1537.54c-10.23-5.09-9.86-25.57-9.3-56.57,.71-39.17,1.68-92.82-18.83-142.17-21.78-52.42-2.36-67.74,16.43-82.56,21.04-16.59,40.92-32.27,2.77-103.02-17.52-32.49-23.08-54.47-17.5-69.17,5.51-14.52,20.98-20.18,37.35-26.18,28.26-10.34,60.3-22.07,56.16-81.89-1.27-18.34,.89-29.62,6.79-35.49,6.41-6.38,15.85-5.69,26.78-4.89,16.52,1.21,35.23,2.58,51.52-18.69,1.69-5.31,17.28-52.74,35.92-60.86,3.91-1.71,7.75-1.68,11.4,.06h0c12.87,6.15,20.34,13.45,22.83,22.32,4.34,15.41-6.95,32.8-20.03,52.93-20.54,31.63-43.83,67.49-19.68,110.16,31.93,56.42,15.07,76.16-8.28,103.48-13.37,15.65-28.53,33.4-38.66,62.34-8.15,23.28,5.75,45.47,19.2,66.93,16.86,26.92,34.3,54.76-2.41,78.92-60.71,39.94-120.66,170.31-121.26,171.62l-.25,.54-.47,.37c-11.18,8.77-19.33,12.95-25.46,12.95-1.85,0-3.52-.38-5.04-1.14Zm149.78-188.44c32.72-21.52,18-45.02,.96-72.23-13.4-21.4-28.6-45.65-19.67-71.15,10.44-29.8,25.91-47.92,39.56-63.9,22.87-26.77,37.98-44.46,7.74-97.89-25.61-45.25-.41-84.06,19.84-115.23,12.43-19.13,23.16-35.66,19.42-48.93-2.09-7.43-8.71-13.71-20.23-19.23h0c-2.35-1.12-4.75-1.12-7.33,0-17.3,7.53-33.17,57.74-33.33,58.25l-.13,.41-.26,.34c-17.96,23.74-39.07,22.19-56.04,20.95-10.14-.74-18.14-1.33-22.97,3.48-4.75,4.73-6.5,15.1-5.36,31.68,4.39,63.49-30.96,76.43-59.36,86.82-15.96,5.84-29.74,10.88-34.46,23.32-5.04,13.27,.44,33.96,17.24,65.11,40.1,74.37,17.66,92.07-4.05,109.18-18.16,14.32-35.3,27.84-14.94,76.83,20.9,50.29,19.92,104.53,19.2,144.13-.49,27.04-.88,48.39,6.58,52.1,4.37,2.17,12.72-1.5,24.83-10.92,4.85-10.55,62.27-133.33,122.77-173.13Z"/><path class="bv" d="M221.41,969.3c30.9-10.59,24.48,48.95,37.53,93.01,13.05,44.06,145.23,19.22,89.75,129.55-55.48,110.33,70.17,36.9,32.64,133.17-37.53,96.28-3.26,199.25-44.06,173.06-40.8-26.19-22.92-147.43-65.35-161.84-42.43-14.41-49.35-31.21-7.34-70.37,42.01-39.16-110.07-78.04-72.54-157.13,37.53-79.08-6.32-127.22,29.37-139.46Z"/><path class="a`" d="M323.05,1491.77c3.89-16.48,37.07-161.53,6.11-179.06-27.29-15.45-26.62-75.56-22.36-132.31,3.77-50.24-60.76-73.72-63.51-74.7l-1.64,4.61c.64,.23,63.75,23.21,60.26,69.72-4.37,58.29-4.84,120.14,24.83,136.94,23.51,13.31,1.86,129.88-8.46,173.68l4.77,1.12Z"/><polygon class="cb" points="439.62 1440.12 395.51 1607.48 296.93 1607.48 252.82 1440.12 439.62 1440.12"/><path class="ak" d="M439.62,1440.12s-97.11,18.23-97.11,167.35h-45.58l-44.11-167.35h186.8Z"/></g><path class="ah" d="M1388.65,37.26h291.06c26.62,0,48.23,21.61,48.23,48.23v252.55c0,26.62-21.61,48.23-48.23,48.23h-291.06c-26.62,0-48.23-21.61-48.23-48.23V85.5c0-26.62,21.61-48.23,48.23-48.23Z"/><rect class="aw" x="1517.34" y="320.27" width="30.74" height="5.69"/><g><path class="ay" d="M1560.5,6.7s24.76,13.6,16.9,47.04c-7.86,33.44-10.85,37.85-4.46,51.36,6.39,13.51,12,70.13,5.19,80.49-6.81,10.36-75.89-50.52-83.56-99.23-7.68-48.71,9.6-69.39,15.73-77.11,6.13-7.72,28.36-14.96,50.2-2.54Z"/><path class="aa" d="M1607,283.05h-26.51c-1.28-13.08-2.47-22.18-2.22-23.53,.39-2.22-26.38-72.45-28.88-78.26-2.52-5.79-12.33-21.37-13.61-36.04-1.3-14.67,17.83-20.59,17.83-20.59,25.82,4.62,34.56,40.34,34.56,40.34,0,0,10.84,72.42,16.32,92.8,1.41,5.22,2.17,14.46,2.51,25.28Z"/><path class="be" d="M1593.66,182.42l-39.48,16.65s-36.29-90.06-5.87-80c30.33,10.02,43.97,28.87,45.35,63.36Z"/><path class="be" d="M1584.87,224.82c-1.15,8.94-5.87,40.61-4.82,49.17,.18,1.41,.76,4.66,1.64,9.07h-95.2c2.53-9.04,4.84-17.04,6.23-21.69,4.62-15.33,.2-19.44-2.14-31.71-.91-4.8-4.11-13.92-7.59-24.23-1.17-3.44-2.37-7.03-3.52-10.63-4.19-12.98-6.13-26.25-7.33-33.98-5.74-36.62,22.42-40.14,22.42-40.14,10.47-1.93,28.75-7.58,28.75-7.58l28.64,5.96s2.73,1.02,6.7,3.96c0,0,.02,0,.02,.02,1.91,1.41,4.12,3.26,6.44,5.65,3.13,3.21,9.36,12.41,15.58,22.52,1.9,3.1,3.81,6.28,5.61,9.41,5.82,10.08,9.96,18.2,9.83,27.37-.11,9.02-10.11,27.89-11.26,36.83Z"/><path class="aa" d="M1551.95,119.07s17.94,30.66,11.27,32.95c-6.67,2.29-41.84-5.45-55.58-34.42,0,0,23.08-10.49,44.31,1.47Z"/><path class="aa" d="M1549.38,133.07s-15.94,6.74-30.37-15.46c0,0,3.88-25.21-4.32-39.79-8.2-14.58,35.84,17.48,35.84,17.48,0,0-.71,3.01-1.45,7.44-.38,2.27-.77,4.91-1.06,7.72-.25,2.34-.44,4.79-.52,7.23-.18,5.67,.22,11.3,1.89,15.37Z"/><path class="ca" d="M1509.8,167.42c-3.28,16.88-26.82,38.02-26.82,38.02-1.16-3.45-2.36-7.03-3.52-10.62,16.24-10.36,30.34-27.39,30.34-27.39Z"/><path class="aa" d="M1503.9,180.85c-1.49,6.15-8.36,68.44-7.61,70.57,.44,1.22,3.76,15.63,7.09,31.64h-30.73c-3.15-10.32-5.01-18.89-4.56-23.74,1.96-21.01-5.16-87.99-5.16-87.99,0,0-6.38-40.52,27.24-45.58,0,0,19.86,2.61,21.06,17.28,1.2,14.68-5.84,31.69-7.33,37.82Z"/><path class="be" d="M1460.45,189.45l41.72,9.75s33.1-64.26,3.29-76c-31.42-12.37-52.55,31.2-45.01,66.25Z"/><path class="bp" d="M1556.65,10.26s36.26,13.31,13.28,75.88c-22.98,62.58-69.9-10.68-62.81-49.13,7.09-38.45,49.54-26.75,49.54-26.75Z"/><path class="ay" d="M1575.49,48.3s-19.14,17.08-49.85,17.88c0,0-7.18,17.5-8.34,22.87,0,0-30.34-52.1,4.54-78.42,34.89-26.32,66.53,26.75,53.65,37.67Z"/><path class="bp" d="M1529.78,69.93c-.02-4.63-2.37-15.29-9.38-12.67-7.01,2.62-.73,24.39,3.89,23.29,0,0,5.54,.35,5.49-10.62Z"/><path class="bm" d="M1547.53,116.63c-17.04-4.71-23.63-20.96-23.83-21.5,13.86,17.91,24.31,15.33,24.31,15.33-.25,2.34-.27,3.79-.48,6.16Z"/></g><path class="aw" d="M1626.29,100.42v5.57h32.77v30.76h5.57v-36.33h-38.34Zm-222.56,36.33h5.57v-30.76h32.77v-5.57h-38.34v36.33Zm255.33,158.72v30.77h-32.77v5.57h38.34v-36.34h-5.57Zm-249.77,0h-5.57v36.34h38.34v-5.57h-32.77v-30.77Z"/><rect class="aw" x="1004.35" y="581.03" width="41.05" height="7.6"/><path class="aw" d="M1147.91,287.38v7.43h43.78v41.09h7.43v-48.52h-51.21Zm-297.27,48.52h7.44v-41.09h43.78v-7.43h-51.21v48.52Zm341.05,212v41.1h-43.78v7.43h51.21v-48.54h-7.43Zm-333.61,0h-7.44v48.54h51.21v-7.43h-43.78v-41.1Z"/><g><path class="as" d="M1941.92,858.6h-34.72c-.63-1.39-1.15-2.6-1.57-3.57-10.3-24.33-63.41-80.12-63.41-80.12v.12s-.03,.03-.03,.06v.06c-.03,.09-.06,.15-.09,.24-.03,.12-.06,.27-.12,.46-.03,.09-.06,.21-.06,.3-.03,.09-.06,.15-.09,.24-2.18,8.13-12.87,48.63-18.22,82.2h-234.98c-.54-3.11-1.18-6.08-1.9-8.82-2.15-8.34-3.6-16.59-4.53-24.3-.03-.39-.09-.76-.12-1.15-.18-1.42-.33-2.84-.45-4.23-2.02-21.09-.51-37.26-.39-38.9-.66,1.42-5.41,18.83-11.63,40.32-3.42,11.79-7.28,24.81-11.12,37.08h-55.49l69.63-200.89c1.54-1.21,19.61-9.94,32.79-16.23,13.45-6.41,29.68-15.81,44.34-23.85,7.5-4.11,14.57-7.83,20.7-10.64l.94-.42v-.03c10.12-4.62,16.86-7.68,16.86-7.68h.03c.24-.03,1.84-.18,4.38-.42,14.14-1.36,58.03-5.47,72.71-6.32,1.21-.09,2.24-.12,3.02-.15,.66-.03,1.18-.03,1.48,0,1.84,.12,10.91,3.26,22.79,7.8,.45,.15,.91,.33,1.36,.51,.58,.21,1.12,.42,1.69,.63,1.03,.39,2.09,.79,3.14,1.21,2.12,.85,4.32,1.69,6.53,2.57,.76,.3,1.54,.6,2.33,.91,23.78,9.43,51.04,21.12,57.51,25.78,4.29,3.05,17.62,28.17,33.06,59.24,16.62,53.25,36.96,130.08,43.64,167.97Z"/><path class="aa" d="M1769.49,585.16c-.63,31.59-61.78,48.87-61.78,48.87,0,0-25.58-32.07-19.47-35.14,2.4-1.21,3.37-5.99,3.67-11.36,.28-5.11-.05-10.75-.35-14.33-.18-2.23-.35-3.67-.35-3.67,0,0,8.74-9.22,19.85-20.2,19.43-19.21,46.13-43.81,46.17-34.02,0,.52-.07,1.14-.23,1.86-4.69,22.03,12.48,68.01,12.48,68.01Z"/><path class="bm" d="M1745.93,538.87h0c-.12,.19-2.71,4.07-7.14,9.64-9.39,11.81-27.04,31.21-46.88,39,.28-5.11-.05-10.75-.35-14.33-2.03-.05-4.06-.29-6.07-.73,5.44-9.5,13.3-19.47,13.3-19.47l12.28-3.67,34.88-10.44Z"/><path class="aa" d="M1757.67,515.72c-5.29,11.51-10.31,19.85-11.74,23.16h0c-.93,2.16-3.45,5.67-7.14,9.64-10.08,10.86-28.81,25.18-47.23,24.68-2.03-.05-4.06-.29-6.07-.73-7.44-1.62-16.22-5.08-21.05-14.54-38.15-74.7-10.53-135.79-10.53-135.79,0,0,104.33-29.5,120.65,1.9,11.45,22.03-4.45,64.64-16.88,91.68Z"/><path class="bb" d="M1653.91,422.13s-9.69-.54-12.08-18.91c-2.37-18.15,2.42-23.18,2.42-23.18,0,0,43.07-18.03,58.54-20.37,15.47-2.34,53.5-4.6,62.41,5.6,0,0,21.66-5.03,27.56,30.92,9.36,57.04-31.9,112.43-31.9,112.43,0,0,.35-37.27-7.87-42.2-8.22-4.94-15.31,6.8-15.31,6.8l-16.81,3.01s25.53-55.13-5.1-57.17c-30.63-2.04-44.32,6.27-61.86,3.07Z"/><path class="aa" d="M1738.13,458.37c1.6-16.42,31.29-22.69,29.3-5.48-1.99,17.21-16.61,33.74-23.36,33.16-6.75-.58-7.16-15.17-5.94-27.68Z"/><path class="bw" d="M1911.91,692.17c-9.67-30.98-18.04-55.49-21.76-58.15-6.5-4.65-58-18.83-82.45-28.41-.79-.3-1.57-.6-2.33-.91-2.21-.88-4.41-1.72-6.53-2.57-1.06-.42-2.12-.82-3.14-1.21-.57-.21-1.12-.42-1.69-.63-.45-.18-.91-.36-1.36-.51-.03,.03-.06,.09-.12,.12-2.18,2.45-13.48,15.29-26.99,34.51-25.27,35.9-58.18,94.08-53.13,147.79,1.63,17.23,3.63,41.98,6.98,69.75,.24,2.21,.51,4.41,.82,6.65h114c1.39-29.07,3.87-67.37,7.62-82.2,.03-.09,.06-.15,.09-.24,0-.09,.03-.21,.06-.3,.03-.15,.09-.3,.12-.46,.03-.09,.06-.15,.09-.24v-.06s.03-.06,.03-.06c0,0,27.59,43.13,29.01,83.56h71.75c-3.51-37.57-14.48-113.27-31.07-166.43Z"/><path class="bw" d="M1670.92,607.37s-8.61,28.65-19.73,100.19v.03c-.39,2.39-.76,4.84-1.15,7.34-.03,.27-.09,.57-.12,.88-.27,1.63-.51,3.33-.76,5.02-.03,.21-.06,.39-.09,.6-.18,1.12-.36,2.27-.51,3.44-.42,2.81-.85,5.71-1.27,8.64-4.17,29.19-9.73,75.59-15.38,125.09h-45.06c-2.45-13.75-4.74-26.26-4.56-34.85-.09,.18-.15,.39-.21,.58-3.6,9.97-7.56,20.82-11.58,31.37-.36,.97-.72,1.93-1.09,2.9h-77.67l77.37-202.4c1.54-1.21,21.46-11.94,34.63-18.19,13.75-6.56,31.13-14.63,46.54-21.73,7.37-3.42,14.3-6.59,20.16-9.28l.48,.36Z"/><path class="al" d="M1775.7,678.15l-29.77,16.8,12.72,12.97-27.92,150.69h-10.52c-3.87-30.46-6.08-57.81-7.8-76.4-7.77-83.05,75.1-176.71,80.24-182.42,3.99,1.51,8.28,3.17,12.72,4.93l-29.68,73.44Z"/><path class="al" d="M1671.38,606.58s-11.12,36.3-24.06,126.93c-4.17,29.16-9.76,75.59-15.41,125.09h-4.38l-5.77-142.38,14.17-15.35-12.6-15.75,26.96-68.85c7.37-3.42,14.3-6.59,20.16-9.28l.94-.42Z"/><path class="aj" d="M1794.16,600.14l-24.67-14.98s-.69,13.53-61.78,48.87l17.35,48.87,69.1-82.75Z"/><path class="aj" d="M1691.45,591.97s.96,14.6,16.25,42.05l-33.86,44.14-2.47-71.59,20.08-14.6Z"/><path class="at" d="M1707.8,634.02s6.56,26.25,4.2,33.6c0,0-14.43,5.25-24.8-1.31,0,0,7.35-18.37,20.6-32.28Z"/><path class="at" d="M1699.84,723.27c-6.92,47.15-6.92,94.84-4.35,135.33h-28.92c-.39-5.71-.76-11.67-1.12-17.89-5.38-93.36,27.62-176.77,27.62-176.77l14.72-3.69s-4.74,41.25-7.95,63.01Z"/><path class="an" d="M1583.21,781.44c-1.1,22.4-.94,42.29-.94,42.29h0c0,.12-.03,.73-.08,1.73-.05-.38-.09-.75-.14-1.12-3.58,9.97-7.56,20.81-11.56,31.36-.93-12.23-1.17-23.62-.9-34.18,1.61-62.81,21.36-95.74,21.36-95.74-4.53,10.95-6.7,34.43-7.74,55.66Z"/></g><g><polygon class="bo" points="1312.88 858.87 1220.47 909.67 1127.66 763.63 1239.91 724.64 1312.88 858.87"/><polygon class="a`" points="1307.02 854.49 1220.6 901.99 1133.81 765.42 1238.78 728.96 1307.02 854.49"/><path class="aa" d="M1338.66,828.95s-16.08-7.69-23.14-11.71c-7.06-4.02-25.22-9.54-26.69-10.85-1.47-1.31-53.83-4.54-57.01-7.28-3.18-2.74-6.26,6.42,7.31,9.4,13.57,2.97,32.46,10.24,33.49,15.55,1.03,5.3-13.94,6.56-15.46,10.93-1.52,4.37,.43,3.39,2.57,4.33,2.15,.94,17.81-7.74,24.7-5.28,6.89,2.46,17.42-.95,22.7,.86,5.28,1.81,30.95,10.45,30.95,10.45l.58-16.38Z"/><path class="aa" d="M1215.96,891.35s-13.51-12.16-20.05-17.25c-6.54-5.09-18.81-20.05-20.62-20.92-1.81-.87-25.24-48.96-29.06-50.89-3.82-1.93,3.61-8.4,11.7,3.23,8.09,11.63,22.29,26.6,27.69,25.51,5.4-1.09,.75-15.69,4.28-18.82,3.53-3.13,3.36-.92,5.08,.74,1.72,1.66-.36,19.8,4.65,25.33,5,5.53,5.89,16.78,9.65,21.05,3.76,4.27,21.89,25.1,21.89,25.1l-15.21,6.93Z"/><path class="bk" d="M1506.97,1541.37s2.92,20.29,3.29,23.33c.37,3.05,32.52-1.79,32.52-1.79l2.6-24.15s-34.39-.25-38.41,2.61Z"/><path class="bo" d="M1509.91,1562.13s-10.19,12.23-20.04,17.55c-9.85,5.33-25.34,7.44-31.16,12.96-4.2,3.98-15.32,21.12,25.6,20.78,40.92-.35,60.65,2.42,65.03-4.15,4.38-6.57-6.34-48.51-6.34-48.51,0,0-9.69,3.49-33.09,1.37Z"/><path class="bk" d="M1276.61,1541.37s2.92,20.29,3.29,23.33c.37,3.05,32.52-1.79,32.52-1.79l2.6-24.15s-34.39-.25-38.41,2.61Z"/><path class="bo" d="M1279.55,1562.13s-10.19,12.23-20.04,17.55c-9.85,5.33-46.11,9.71-51.93,15.22-4.21,3.98-11.2,20.01,46.38,18.51,40.9-1.07,60.65,2.42,65.03-4.15,4.38-6.57-6.34-48.51-6.34-48.51,0,0-9.13,3.72-33.09,1.37Z"/><path class="bo" d="M1480.34,1020.05s30.21,48,27.96,91.38c-2.25,43.39,10.95,90.75,15.49,136.07,5.06,50.53,25.76,170.14,26.51,197.17,.75,27.03-3.21,113.33-3.21,113.33l-41.44,.95s-34.81-209.11-43.82-230.45c-9.01-21.34-53.72-173.45-55.22-190.52-1.5-17.07,73.74-117.93,73.74-117.93Z"/><path class="bo" d="M1321.32,1026.56s-22.77,118.91-25.77,145.46c-3,26.55-5.01,128.5-6.51,145.1s-10.02,217.17-18.03,241.83h52.98s40.67-145.81,40.67-214.8,31.42-149.98,51.71-195.5c20.28-45.52,66.71-46.6,79.18-131.05,0,0-157.35-17.83-174.23,8.96Z"/><path class="aa" d="M1429.93,616.53s-40.55-15.15-59.24,15.72-16.89,92.66,3.54,100.26c20.44,7.6,51.14,3.62,61.6-15.69,10.46-19.31,19.91-47.23,19.46-65.89-.45-18.66-14.72-29.01-25.36-34.39Z"/><path class="aa" d="M1378.63,733.92s1.69,10.95-1.1,16.34c-2.79,5.39,52.53,5.53,52.53,5.53,0,0,4.49-29.33,13-54.12,8.51-24.78-64.43,32.24-64.43,32.24Z"/><path class="bt" d="M1443.07,701.68s-3.82,6.3-19.4,3.85c-15.59-2.44-34.6-23.18-41.11-25.46-6.51-2.28-6.57-6.1-6.57-6.1l-4.07,5.95-6.91,.44s6.3-18.55-3.21-26.11c-9.51-7.57,9.87-60.04,59.85-42.57,0,0,38.39,10.58,36.99,32.42-1.4,21.83-6.99,46.7-15.58,57.58Z"/><path class="by" d="M1374.25,749.61s.18-10.3,4.85-11.29c4.67-.99,51.55-5.5,57.29-3.24v12s-11.04,6.8-62.13,2.53Z"/><path class="aa" d="M1377.02,666.04c.88-3.66,10.19-14.13,13.75-2.92,3.57,11.21-5.39,26.28-10.38,24.99-4.99-1.29-5.59-12.78-3.37-22.07Z"/><path class="aq" d="M1188.19,871.36s.05-.01,.08,0c-.32,.14-.37,.15-.08,0Z"/><path class="ad" d="M1514.42,1134.39s-24.87,7.32-67.27,12c-42.4,4.67-148.35-1.69-149.02-6.7-.67-5.01,22.79-186.54,21.46-195.89-1.33-9.35-2.05-42.66-2.05-42.66-.52,9.13-9.82,46.41-21.05,66.73-4.06,7.34-17.66,30.36-24.22,25.12-31.74-25.34-80.89-120.84-84.01-121.65,2.62-1.14,23.29-10.66,26.19-11.62,2.54-.85,25.44,23.4,39.31,38.43,6.19,6.7,10.58,11.57,10.58,11.57,4.01-9.01,18.6-65.8,23.13-85.45,10.23-44.32,8.66-46.17,8.66-46.17,31.02-9.38,78.11-28.48,78.11-28.48l62.13-2.53s57.02,12.55,79.48,22.7c2.13,.96,2.14,50.87,7.99,63.96l-18.62,39.28s-10.75,77.81-12.99,112.42c-1.03,15.88,22.18,148.96,22.18,148.96Z"/><path class="ad" d="M1526.43,898.53c-1.62,5.24-8.99,9.66-13.77,11.6-3.06,1.24-6.49,1.64-9.95,1l-2.43-.45h0l-42.58-7.9s-9.32-107.29,58.17-133c1.78,.58,25.47,80.71,10.57,128.75Z"/><path class="ac" d="M1512.65,910.12h0c-3.06,1.24-6.49,1.64-9.95,1l-2.43-.45h0l4.2-54.83,8.18,54.28Z"/><path class="ac" d="M1264.35,909.72l-5.2,22.04s-5.65-22.11-5.38-33.6c6.19,6.7,10.58,11.57,10.58,11.57Z"/><path class="bt" d="M1441.48,620.17s53.14-6.66,.9,82.11l-.9-82.11Z"/><polygon class="bo" points="1170.39 755.8 1164.98 746.52 1207.53 731.84 1212.93 741.07 1170.39 755.8"/></g><g class="ag"><polygon class="br" points="1981.89 358.1 2012.03 358.1 2002.8 338.97 1972.66 338.97 1981.89 358.1"/><polygon class="bx" points="1967.78 358.1 1974.97 358.1 1965.74 338.97 1958.56 338.97 1967.78 358.1"/><polygon class="ax" points="1863.64 335.31 1985.7 335.31 1981.65 325.74 1859.59 325.74 1863.64 335.31"/></g><g><path class="c`" d="M1162.08,14.63h46.09c1.55,0,2.82,1.26,2.82,2.82v9.95c0,1.55-1.26,2.82-2.82,2.82h-46.09c-1.55,0-2.82-1.26-2.82-2.82v-9.95c0-1.55,1.26-2.82,2.82-2.82Z"/><rect class="ab" x="1159.26" y="52.01" width="51.72" height="15.59" rx="2.82" ry="2.82"/><path class="bn" d="M1162.08,89.38h46.08c1.55,0,2.82,1.26,2.82,2.82v9.95c0,1.55-1.26,2.82-2.82,2.82h-46.09c-1.55,0-2.82-1.26-2.82-2.82v-9.95c0-1.56,1.26-2.82,2.82-2.82Z"/><path class="y" d="M1235.16,14.63h9.08c1.55,0,2.82,1.26,2.82,2.82v9.95c0,1.55-1.26,2.82-2.82,2.82h-9.08c-1.55,0-2.82-1.26-2.82-2.82v-9.95c0-1.55,1.26-2.82,2.82-2.82Z"/><path class="ap" d="M1235.15,52.01h9.08c1.55,0,2.82,1.26,2.82,2.82v9.95c0,1.55-1.26,2.82-2.82,2.82h-9.08c-1.55,0-2.82-1.26-2.82-2.82v-9.95c0-1.55,1.26-2.82,2.82-2.82Z"/><path class="ar" d="M1235.16,89.38h9.08c1.55,0,2.82,1.26,2.82,2.82v9.95c0,1.55-1.26,2.82-2.82,2.82h-9.08c-1.55,0-2.82-1.26-2.82-2.82v-9.95c0-1.56,1.26-2.82,2.82-2.82Z"/></g><g><polygon class="bu" points="1043.99 871.98 1098.1 871.98 1081.54 837.63 1027.43 837.63 1043.99 871.98"/><polygon class="bl" points="1018.67 871.98 1031.57 871.98 1015.01 837.63 1002.11 837.63 1018.67 871.98"/></g></svg>